<?xml version="1.0" encoding="UTF-8" standalone="no"?><svg xmlns="http://www.w3.org/2000/svg" xmlns:xlink="http://www.w3.org/1999/xlink" contentScriptType="application/ecmascript" contentStyleType="text/css" height="419px" preserveAspectRatio="none" style="width:227px;height:419px;" version="1.1" viewBox="0 0 227 419" width="227px" zoomAndPan="magnify"><defs><filter height="300%" id="f1i7i3h7qumxlq" width="300%" x="-1" y="-1"><feGaussianBlur result="blurOut" stdDeviation="2.0"/><feColorMatrix in="blurOut" result="blurOut2" type="matrix" values="0 0 0 0 0 0 0 0 0 0 0 0 0 0 0 0 0 0 .4 0"/><feOffset dx="4.0" dy="4.0" in="blurOut2" result="blurOut3"/><feBlend in="SourceGraphic" in2="blurOut3" mode="normal"/></filter></defs><g><ellipse cx="113" cy="20" fill="#000000" filter="url(#f1i7i3h7qumxlq)" rx="10" ry="10" style="stroke: none; stroke-width: 1.0;"/><rect fill="#FEFECE" filter="url(#f1i7i3h7qumxlq)" height="36.3887" rx="12.5" ry="12.5" style="stroke: #A80036; stroke-width: 1.5;" width="68" x="79" y="50"/><text fill="#000000" font-family="sans-serif" font-size="12" lengthAdjust="spacingAndGlyphs" textLength="48" x="89" y="73.752">需求评审</text><rect fill="#FEFECE" filter="url(#f1i7i3h7qumxlq)" height="36.3887" rx="12.5" ry="12.5" style="stroke: #A80036; stroke-width: 1.5;" width="206" x="10" y="106.3887"/><text fill="#000000" font-family="sans-serif" font-size="12" lengthAdjust="spacingAndGlyphs" textLength="186" x="20" y="130.1406">跟上游确定API（上游通常是前端）</text><rect fill="#FEFECE" filter="url(#f1i7i3h7qumxlq)" height="36.3887" rx="12.5" ry="12.5" style="stroke: #A80036; stroke-width: 1.5;" width="92" x="67" y="162.7773"/><text fill="#000000" font-family="sans-serif" font-size="12" lengthAdjust="spacingAndGlyphs" textLength="72" x="77" y="186.5293">开发具体功能</text><rect fill="#FEFECE" filter="url(#f1i7i3h7qumxlq)" height="36.3887" rx="12.5" ry="12.5" style="stroke: #A80036; stroke-width: 1.5;" width="80" x="73" y="219.166"/><text fill="#000000" font-family="sans-serif" font-size="12" lengthAdjust="spacingAndGlyphs" textLength="60" x="83" y="242.918">前后端联调</text><rect fill="#FEFECE" filter="url(#f1i7i3h7qumxlq)" height="36.3887" rx="12.5" ry="12.5" style="stroke: #A80036; stroke-width: 1.5;" width="44" x="91" y="275.5547"/><text fill="#000000" font-family="sans-serif" font-size="12" lengthAdjust="spacingAndGlyphs" textLength="24" x="101" y="299.3066">测试</text><rect fill="#FEFECE" filter="url(#f1i7i3h7qumxlq)" height="36.3887" rx="12.5" ry="12.5" style="stroke: #A80036; stroke-width: 1.5;" width="92" x="67" y="331.9434"/><text fill="#000000" font-family="sans-serif" font-size="12" lengthAdjust="spacingAndGlyphs" textLength="72" x="77" y="355.6953">执行发布任务</text><ellipse cx="113" cy="398.332" fill="#FFFFFF" filter="url(#f1i7i3h7qumxlq)" rx="10" ry="10" style="stroke: #000000; stroke-width: 1.5;"/><line style="stroke: #000000; stroke-width: 2.5;" x1="106.8128" x2="119.1872" y1="392.1448" y2="404.5192"/><line style="stroke: #000000; stroke-width: 2.5;" x1="119.1872" x2="106.8128" y1="392.1448" y2="404.5192"/><line style="stroke: #A80036; stroke-width: 1.5;" x1="113" x2="113" y1="30" y2="50"/><polygon fill="#A80036" points="109,40,113,50,117,40,113,44" style="stroke: #A80036; stroke-width: 1.0;"/><line style="stroke: #A80036; stroke-width: 1.5;" x1="113" x2="113" y1="86.3887" y2="106.3887"/><polygon fill="#A80036" points="109,96.3887,113,106.3887,117,96.3887,113,100.3887" style="stroke: #A80036; stroke-width: 1.0;"/><line style="stroke: #A80036; stroke-width: 1.5;" x1="113" x2="113" y1="142.7773" y2="162.7773"/><polygon fill="#A80036" points="109,152.7773,113,162.7773,117,152.7773,113,156.7773" style="stroke: #A80036; stroke-width: 1.0;"/><line style="stroke: #A80036; stroke-width: 1.5;" x1="113" x2="113" y1="199.166" y2="219.166"/><polygon fill="#A80036" points="109,209.166,113,219.166,117,209.166,113,213.166" style="stroke: #A80036; stroke-width: 1.0;"/><line style="stroke: #A80036; stroke-width: 1.5;" x1="113" x2="113" y1="255.5547" y2="275.5547"/><polygon fill="#A80036" points="109,265.5547,113,275.5547,117,265.5547,113,269.5547" style="stroke: #A80036; stroke-width: 1.0;"/><line style="stroke: #A80036; stroke-width: 1.5;" x1="113" x2="113" y1="311.9434" y2="331.9434"/><polygon fill="#A80036" points="109,321.9434,113,331.9434,117,321.9434,113,325.9434" style="stroke: #A80036; stroke-width: 1.0;"/><line style="stroke: #A80036; stroke-width: 1.5;" x1="113" x2="113" y1="368.332" y2="388.332"/><polygon fill="#A80036" points="109,378.332,113,388.332,117,378.332,113,382.332" style="stroke: #A80036; stroke-width: 1.0;"/><!--
@startuml
start
  :需求评审;
  :跟上游确定API（上游通常是前端）;
  :开发具体功能;
  :前后端联调;
  :测试;
  :执行发布任务;
end
@enduml

PlantUML version 1.2018.12(Sun Oct 21 18:15:15 CST 2018)
(GPL source distribution)
Java Runtime: Java(TM) SE Runtime Environment
JVM: Java HotSpot(TM) 64-Bit Server VM
Java Version: 1.8.0_201-b09
Operating System: Windows 10
OS Version: 10.0
Default Encoding: GBK
Language: zh
Country: CN
--></g></svg>