<?xml version="1.0" encoding="UTF-8" standalone="no"?><svg xmlns="http://www.w3.org/2000/svg" xmlns:xlink="http://www.w3.org/1999/xlink" contentScriptType="application/ecmascript" contentStyleType="text/css" height="670px" preserveAspectRatio="none" style="width:240px;height:670px;" version="1.1" viewBox="0 0 240 670" width="240px" zoomAndPan="magnify"><defs><filter height="300%" id="fmfcsxa5nagfv" width="300%" x="-1" y="-1"><feGaussianBlur result="blurOut" stdDeviation="2.0"/><feColorMatrix in="blurOut" result="blurOut2" type="matrix" values="0 0 0 0 0 0 0 0 0 0 0 0 0 0 0 0 0 0 .4 0"/><feOffset dx="4.0" dy="4.0" in="blurOut2" result="blurOut3"/><feBlend in="SourceGraphic" in2="blurOut3" mode="normal"/></filter></defs><g><ellipse cx="106" cy="20" fill="#000000" filter="url(#fmfcsxa5nagfv)" rx="10" ry="10" style="stroke: none; stroke-width: 1.0;"/><rect fill="#FEFECE" filter="url(#fmfcsxa5nagfv)" height="34.1328" rx="12.5" ry="12.5" style="stroke: #A80036; stroke-width: 1.5;" width="68" x="72" y="94"/><text fill="#000000" font-family="sans-serif" font-size="12" lengthAdjust="spacingAndGlyphs" textLength="48" x="82" y="115.6016">需求产出</text><rect fill="#FEFECE" filter="url(#fmfcsxa5nagfv)" height="34.1328" rx="12.5" ry="12.5" style="stroke: #A80036; stroke-width: 1.5;" width="188" x="12" y="148.1328"/><text fill="#000000" font-family="sans-serif" font-size="12" lengthAdjust="spacingAndGlyphs" textLength="168" x="22" y="169.7344">需求评审（研发，设计，测试）</text><rect fill="#000000" filter="url(#fmfcsxa5nagfv)" height="6" rx="2.5" ry="2.5" style="stroke: #000000; stroke-width: 1.0;" width="192" x="10" y="202.2656"/><rect fill="#FEFECE" filter="url(#fmfcsxa5nagfv)" height="34.1328" rx="12.5" ry="12.5" style="stroke: #A80036; stroke-width: 1.5;" width="55" x="30.5" y="228.2656"/><text fill="#000000" font-family="sans-serif" font-size="12" lengthAdjust="spacingAndGlyphs" textLength="35" x="40.5" y="249.8672">UI设计</text><rect fill="#FEFECE" filter="url(#fmfcsxa5nagfv)" height="34.1328" rx="12.5" ry="12.5" style="stroke: #A80036; stroke-width: 1.5;" width="68" x="24" y="297.3984"/><text fill="#000000" font-family="sans-serif" font-size="12" lengthAdjust="spacingAndGlyphs" textLength="48" x="34" y="319">前端开发</text><rect fill="#FEFECE" filter="url(#fmfcsxa5nagfv)" height="34.1328" rx="12.5" ry="12.5" style="stroke: #A80036; stroke-width: 1.5;" width="68" x="120" y="262.832"/><text fill="#000000" font-family="sans-serif" font-size="12" lengthAdjust="spacingAndGlyphs" textLength="48" x="130" y="284.4336">后端开发</text><rect fill="#000000" filter="url(#fmfcsxa5nagfv)" height="6" rx="2.5" ry="2.5" style="stroke: #000000; stroke-width: 1.0;" width="192" x="10" y="351.5313"/><rect fill="#FEFECE" filter="url(#fmfcsxa5nagfv)" height="34.1328" rx="12.5" ry="12.5" style="stroke: #A80036; stroke-width: 1.5;" width="80" x="66" y="379.0313"/><text fill="#000000" font-family="sans-serif" font-size="12" lengthAdjust="spacingAndGlyphs" textLength="60" x="76" y="400.6328">前后端联调</text><rect fill="#FEFECE" filter="url(#fmfcsxa5nagfv)" height="34.1328" rx="12.5" ry="12.5" style="stroke: #A80036; stroke-width: 1.5;" width="127" x="42.5" y="433.1641"/><text fill="#000000" font-family="sans-serif" font-size="12" lengthAdjust="spacingAndGlyphs" textLength="107" x="52.5" y="454.7656">测试（通常2-3轮）</text><rect fill="#FEFECE" filter="url(#fmfcsxa5nagfv)" height="34.1328" rx="12.5" ry="12.5" style="stroke: #A80036; stroke-width: 1.5;" width="44" x="84" y="487.2969"/><text fill="#000000" font-family="sans-serif" font-size="12" lengthAdjust="spacingAndGlyphs" textLength="24" x="94" y="508.8984">上线</text><rect fill="#FEFECE" filter="url(#fmfcsxa5nagfv)" height="34.1328" rx="12.5" ry="12.5" style="stroke: #A80036; stroke-width: 1.5;" width="98" x="57" y="541.4297"/><text fill="#000000" font-family="sans-serif" font-size="12" lengthAdjust="spacingAndGlyphs" textLength="78" x="67" y="563.0313">收集/分析数据</text><polygon fill="#FEFECE" filter="url(#fmfcsxa5nagfv)" points="106,50,118,62,106,74,94,62,106,50" style="stroke: #A80036; stroke-width: 1.5;"/><polygon fill="#FEFECE" filter="url(#fmfcsxa5nagfv)" points="106,595.5625,106,595.5625,118,607.5625,106,619.5625,106,619.5625,94,607.5625,106,595.5625" style="stroke: #A80036; stroke-width: 1.5;"/><ellipse cx="106" cy="649.5625" fill="#FFFFFF" filter="url(#fmfcsxa5nagfv)" rx="10" ry="10" style="stroke: #000000; stroke-width: 1.5;"/><line style="stroke: #000000; stroke-width: 2.5;" x1="99.8128" x2="112.1872" y1="643.3753" y2="655.7497"/><line style="stroke: #000000; stroke-width: 2.5;" x1="112.1872" x2="99.8128" y1="643.3753" y2="655.7497"/><line style="stroke: #A80036; stroke-width: 1.5;" x1="106" x2="106" y1="128.1328" y2="148.1328"/><polygon fill="#A80036" points="102,138.1328,106,148.1328,110,138.1328,106,142.1328" style="stroke: #A80036; stroke-width: 1.0;"/><line style="stroke: #A80036; stroke-width: 1.5;" x1="58" x2="58" y1="262.3984" y2="297.3984"/><polygon fill="#A80036" points="54,287.3984,58,297.3984,62,287.3984,58,291.3984" style="stroke: #A80036; stroke-width: 1.0;"/><line style="stroke: #A80036; stroke-width: 1.5;" x1="58" x2="58" y1="208.2656" y2="228.2656"/><polygon fill="#A80036" points="54,218.2656,58,228.2656,62,218.2656,58,222.2656" style="stroke: #A80036; stroke-width: 1.0;"/><line style="stroke: #A80036; stroke-width: 1.5;" x1="154" x2="154" y1="208.2656" y2="262.832"/><polygon fill="#A80036" points="150,252.832,154,262.832,158,252.832,154,256.832" style="stroke: #A80036; stroke-width: 1.0;"/><line style="stroke: #A80036; stroke-width: 1.5;" x1="58" x2="58" y1="331.5313" y2="351.5313"/><polygon fill="#A80036" points="54,341.5313,58,351.5313,62,341.5313,58,345.5313" style="stroke: #A80036; stroke-width: 1.0;"/><line style="stroke: #A80036; stroke-width: 1.5;" x1="154" x2="154" y1="296.9648" y2="351.5313"/><polygon fill="#A80036" points="150,341.5313,154,351.5313,158,341.5313,154,345.5313" style="stroke: #A80036; stroke-width: 1.0;"/><line style="stroke: #A80036; stroke-width: 1.5;" x1="106" x2="106" y1="182.2656" y2="202.2656"/><polygon fill="#A80036" points="102,192.2656,106,202.2656,110,192.2656,106,196.2656" style="stroke: #A80036; stroke-width: 1.0;"/><line style="stroke: #A80036; stroke-width: 1.5;" x1="106" x2="106" y1="357.5313" y2="379.0313"/><polygon fill="#A80036" points="102,369.0313,106,379.0313,110,369.0313,106,373.0313" style="stroke: #A80036; stroke-width: 1.0;"/><line style="stroke: #A80036; stroke-width: 1.5;" x1="106" x2="106" y1="413.1641" y2="433.1641"/><polygon fill="#A80036" points="102,423.1641,106,433.1641,110,423.1641,106,427.1641" style="stroke: #A80036; stroke-width: 1.0;"/><line style="stroke: #A80036; stroke-width: 1.5;" x1="106" x2="106" y1="467.2969" y2="487.2969"/><polygon fill="#A80036" points="102,477.2969,106,487.2969,110,477.2969,106,481.2969" style="stroke: #A80036; stroke-width: 1.0;"/><line style="stroke: #A80036; stroke-width: 1.5;" x1="106" x2="106" y1="521.4297" y2="541.4297"/><polygon fill="#A80036" points="102,531.4297,106,541.4297,110,531.4297,106,535.4297" style="stroke: #A80036; stroke-width: 1.0;"/><line style="stroke: #A80036; stroke-width: 1.5;" x1="106" x2="106" y1="74" y2="94"/><polygon fill="#A80036" points="102,84,106,94,110,84,106,88" style="stroke: #A80036; stroke-width: 1.0;"/><line style="stroke: #A80036; stroke-width: 1.5;" x1="118" x2="214" y1="607.5625" y2="607.5625"/><polygon fill="#A80036" points="210,359.0313,214,349.0313,218,359.0313,214,355.0313" style="stroke: #A80036; stroke-width: 1.5;"/><line style="stroke: #A80036; stroke-width: 1.5;" x1="214" x2="214" y1="62" y2="607.5625"/><line style="stroke: #A80036; stroke-width: 1.5;" x1="214" x2="118" y1="62" y2="62"/><polygon fill="#A80036" points="128,58,118,62,128,66,124,62" style="stroke: #A80036; stroke-width: 1.0;"/><line style="stroke: #A80036; stroke-width: 1.5;" x1="106" x2="106" y1="575.5625" y2="595.5625"/><polygon fill="#A80036" points="102,585.5625,106,595.5625,110,585.5625,106,589.5625" style="stroke: #A80036; stroke-width: 1.0;"/><line style="stroke: #A80036; stroke-width: 1.5;" x1="106" x2="106" y1="30" y2="50"/><polygon fill="#A80036" points="102,40,106,50,110,40,106,44" style="stroke: #A80036; stroke-width: 1.0;"/><line style="stroke: #A80036; stroke-width: 1.5;" x1="106" x2="106" y1="619.5625" y2="639.5625"/><polygon fill="#A80036" points="102,629.5625,106,639.5625,110,629.5625,106,633.5625" style="stroke: #A80036; stroke-width: 1.0;"/><!--
@startuml
start
repeat
  :需求产出;
  :需求评审（研发，设计，测试）;
  fork
  :UI设计;
  :前端开发;
  fork again
  :后端开发;
  end fork
  :前后端联调;
  :测试（通常2-3轮）;
  :上线;
  :收集/分析数据;
repeat while
end
@enduml

PlantUML version 1.2018.12(Sun Oct 21 18:15:15 CST 2018)
(GPL source distribution)
Java Runtime: Java(TM) SE Runtime Environment
JVM: Java HotSpot(TM) 64-Bit Server VM
Java Version: 1.8.0_131-b11
Operating System: Mac OS X
OS Version: 10.14.2
Default Encoding: UTF-8
Language: en
Country: US
--></g></svg>