<?xml version="1.0" encoding="UTF-8" standalone="no"?><svg xmlns="http://www.w3.org/2000/svg" xmlns:xlink="http://www.w3.org/1999/xlink" contentScriptType="application/ecmascript" contentStyleType="text/css" height="599px" preserveAspectRatio="none" style="width:240px;height:599px;" version="1.1" viewBox="0 0 240 599" width="240px" zoomAndPan="magnify"><defs><filter height="300%" id="f10ghc73j635da" width="300%" x="-1" y="-1"><feGaussianBlur result="blurOut" stdDeviation="2.0"/><feColorMatrix in="blurOut" result="blurOut2" type="matrix" values="0 0 0 0 0 0 0 0 0 0 0 0 0 0 0 0 0 0 .4 0"/><feOffset dx="4.0" dy="4.0" in="blurOut2" result="blurOut3"/><feBlend in="SourceGraphic" in2="blurOut3" mode="normal"/></filter></defs><g><ellipse cx="106" cy="20" fill="#000000" filter="url(#f10ghc73j635da)" rx="10" ry="10" style="stroke: none; stroke-width: 1.0;"/><rect fill="#FEFECE" filter="url(#f10ghc73j635da)" height="34.1328" rx="12.5" ry="12.5" style="stroke: #A80036; stroke-width: 1.5;" width="44" x="84" y="94"/><text fill="#000000" font-family="sans-serif" font-size="12" lengthAdjust="spacingAndGlyphs" textLength="24" x="94" y="115.6016">需求</text><rect fill="#FEFECE" filter="url(#f10ghc73j635da)" height="34.1328" rx="12.5" ry="12.5" style="stroke: #A80036; stroke-width: 1.5;" width="44" x="84" y="148.1328"/><text fill="#000000" font-family="sans-serif" font-size="12" lengthAdjust="spacingAndGlyphs" textLength="24" x="94" y="169.7344">设计</text><rect fill="#000000" filter="url(#f10ghc73j635da)" height="6" rx="2.5" ry="2.5" style="stroke: #000000; stroke-width: 1.0;" width="192" x="10" y="202.2656"/><rect fill="#FEFECE" filter="url(#f10ghc73j635da)" height="34.1328" rx="12.5" ry="12.5" style="stroke: #A80036; stroke-width: 1.5;" width="68" x="24" y="228.2656"/><text fill="#000000" font-family="sans-serif" font-size="12" lengthAdjust="spacingAndGlyphs" textLength="48" x="34" y="249.8672">前端开发</text><rect fill="#FEFECE" filter="url(#f10ghc73j635da)" height="34.1328" rx="12.5" ry="12.5" style="stroke: #A80036; stroke-width: 1.5;" width="68" x="120" y="228.2656"/><text fill="#000000" font-family="sans-serif" font-size="12" lengthAdjust="spacingAndGlyphs" textLength="48" x="130" y="249.8672">后端开发</text><rect fill="#000000" filter="url(#f10ghc73j635da)" height="6" rx="2.5" ry="2.5" style="stroke: #000000; stroke-width: 1.0;" width="192" x="10" y="282.3984"/><rect fill="#FEFECE" filter="url(#f10ghc73j635da)" height="34.1328" rx="12.5" ry="12.5" style="stroke: #A80036; stroke-width: 1.5;" width="80" x="66" y="308.3984"/><text fill="#000000" font-family="sans-serif" font-size="12" lengthAdjust="spacingAndGlyphs" textLength="60" x="76" y="330">前后端联调</text><rect fill="#FEFECE" filter="url(#f10ghc73j635da)" height="34.1328" rx="12.5" ry="12.5" style="stroke: #A80036; stroke-width: 1.5;" width="44" x="84" y="362.5313"/><text fill="#000000" font-family="sans-serif" font-size="12" lengthAdjust="spacingAndGlyphs" textLength="24" x="94" y="384.1328">测试</text><rect fill="#FEFECE" filter="url(#f10ghc73j635da)" height="34.1328" rx="12.5" ry="12.5" style="stroke: #A80036; stroke-width: 1.5;" width="44" x="84" y="416.6641"/><text fill="#000000" font-family="sans-serif" font-size="12" lengthAdjust="spacingAndGlyphs" textLength="24" x="94" y="438.2656">上线</text><rect fill="#FEFECE" filter="url(#f10ghc73j635da)" height="34.1328" rx="12.5" ry="12.5" style="stroke: #A80036; stroke-width: 1.5;" width="68" x="72" y="470.7969"/><text fill="#000000" font-family="sans-serif" font-size="12" lengthAdjust="spacingAndGlyphs" textLength="48" x="82" y="492.3984">数据分析</text><polygon fill="#FEFECE" filter="url(#f10ghc73j635da)" points="106,50,118,62,106,74,94,62,106,50" style="stroke: #A80036; stroke-width: 1.5;"/><polygon fill="#FEFECE" filter="url(#f10ghc73j635da)" points="106,524.9297,106,524.9297,118,536.9297,106,548.9297,106,548.9297,94,536.9297,106,524.9297" style="stroke: #A80036; stroke-width: 1.5;"/><ellipse cx="106" cy="578.9297" fill="#FFFFFF" filter="url(#f10ghc73j635da)" rx="10" ry="10" style="stroke: #000000; stroke-width: 1.5;"/><line style="stroke: #000000; stroke-width: 2.5;" x1="99.8128" x2="112.1872" y1="572.7425" y2="585.1169"/><line style="stroke: #000000; stroke-width: 2.5;" x1="112.1872" x2="99.8128" y1="572.7425" y2="585.1169"/><line style="stroke: #A80036; stroke-width: 1.5;" x1="106" x2="106" y1="128.1328" y2="148.1328"/><polygon fill="#A80036" points="102,138.1328,106,148.1328,110,138.1328,106,142.1328" style="stroke: #A80036; stroke-width: 1.0;"/><line style="stroke: #A80036; stroke-width: 1.5;" x1="58" x2="58" y1="208.2656" y2="228.2656"/><polygon fill="#A80036" points="54,218.2656,58,228.2656,62,218.2656,58,222.2656" style="stroke: #A80036; stroke-width: 1.0;"/><line style="stroke: #A80036; stroke-width: 1.5;" x1="154" x2="154" y1="208.2656" y2="228.2656"/><polygon fill="#A80036" points="150,218.2656,154,228.2656,158,218.2656,154,222.2656" style="stroke: #A80036; stroke-width: 1.0;"/><line style="stroke: #A80036; stroke-width: 1.5;" x1="58" x2="58" y1="262.3984" y2="282.3984"/><polygon fill="#A80036" points="54,272.3984,58,282.3984,62,272.3984,58,276.3984" style="stroke: #A80036; stroke-width: 1.0;"/><line style="stroke: #A80036; stroke-width: 1.5;" x1="154" x2="154" y1="262.3984" y2="282.3984"/><polygon fill="#A80036" points="150,272.3984,154,282.3984,158,272.3984,154,276.3984" style="stroke: #A80036; stroke-width: 1.0;"/><line style="stroke: #A80036; stroke-width: 1.5;" x1="106" x2="106" y1="182.2656" y2="202.2656"/><polygon fill="#A80036" points="102,192.2656,106,202.2656,110,192.2656,106,196.2656" style="stroke: #A80036; stroke-width: 1.0;"/><line style="stroke: #A80036; stroke-width: 1.5;" x1="106" x2="106" y1="288.3984" y2="308.3984"/><polygon fill="#A80036" points="102,298.3984,106,308.3984,110,298.3984,106,302.3984" style="stroke: #A80036; stroke-width: 1.0;"/><line style="stroke: #A80036; stroke-width: 1.5;" x1="106" x2="106" y1="342.5313" y2="362.5313"/><polygon fill="#A80036" points="102,352.5313,106,362.5313,110,352.5313,106,356.5313" style="stroke: #A80036; stroke-width: 1.0;"/><line style="stroke: #A80036; stroke-width: 1.5;" x1="106" x2="106" y1="396.6641" y2="416.6641"/><polygon fill="#A80036" points="102,406.6641,106,416.6641,110,406.6641,106,410.6641" style="stroke: #A80036; stroke-width: 1.0;"/><line style="stroke: #A80036; stroke-width: 1.5;" x1="106" x2="106" y1="450.7969" y2="470.7969"/><polygon fill="#A80036" points="102,460.7969,106,470.7969,110,460.7969,106,464.7969" style="stroke: #A80036; stroke-width: 1.0;"/><line style="stroke: #A80036; stroke-width: 1.5;" x1="106" x2="106" y1="74" y2="94"/><polygon fill="#A80036" points="102,84,106,94,110,84,106,88" style="stroke: #A80036; stroke-width: 1.0;"/><line style="stroke: #A80036; stroke-width: 1.5;" x1="118" x2="214" y1="536.9297" y2="536.9297"/><polygon fill="#A80036" points="210,309.4648,214,299.4648,218,309.4648,214,305.4648" style="stroke: #A80036; stroke-width: 1.5;"/><line style="stroke: #A80036; stroke-width: 1.5;" x1="214" x2="214" y1="62" y2="536.9297"/><line style="stroke: #A80036; stroke-width: 1.5;" x1="214" x2="118" y1="62" y2="62"/><polygon fill="#A80036" points="128,58,118,62,128,66,124,62" style="stroke: #A80036; stroke-width: 1.0;"/><line style="stroke: #A80036; stroke-width: 1.5;" x1="106" x2="106" y1="504.9297" y2="524.9297"/><polygon fill="#A80036" points="102,514.9297,106,524.9297,110,514.9297,106,518.9297" style="stroke: #A80036; stroke-width: 1.0;"/><line style="stroke: #A80036; stroke-width: 1.5;" x1="106" x2="106" y1="30" y2="50"/><polygon fill="#A80036" points="102,40,106,50,110,40,106,44" style="stroke: #A80036; stroke-width: 1.0;"/><line style="stroke: #A80036; stroke-width: 1.5;" x1="106" x2="106" y1="548.9297" y2="568.9297"/><polygon fill="#A80036" points="102,558.9297,106,568.9297,110,558.9297,106,562.9297" style="stroke: #A80036; stroke-width: 1.0;"/><!--
@startuml
start
repeat
  :需求;
  :设计;
  fork
  :前端开发;
  fork again
  :后端开发;
  end fork
  :前后端联调;
  :测试;
  :上线;
  :数据分析;
repeat while
end
@enduml

PlantUML version 1.2018.12(Sun Oct 21 18:15:15 CST 2018)
(GPL source distribution)
Java Runtime: Java(TM) SE Runtime Environment
JVM: Java HotSpot(TM) 64-Bit Server VM
Java Version: 1.8.0_131-b11
Operating System: Mac OS X
OS Version: 10.14.2
Default Encoding: UTF-8
Language: en
Country: US
--></g></svg>