<?xml version="1.0" encoding="utf-8"?>
<!-- Generator: Adobe Illustrator 18.1.1, SVG Export Plug-In . SVG Version: 6.00 Build 0)  -->
<svg version="1.1" id="Layer_1" xmlns="http://www.w3.org/2000/svg" xmlns:xlink="http://www.w3.org/1999/xlink" x="0px" y="0px"
	 viewBox="0 0 600 450" enable-background="new 0 0 600 450" xml:space="preserve">
<g>
	<path fill="#C9C9C9" d="M563.1,45c0,2.3-1.3,4.1-3,4.1H229.9c-1.7,0-3-1.8-3-4.1V18.4c0-2.3,1.3-4.1,3-4.1h330.2c1.7,0,3,1.8,3,4.1
		V45z"/>
	<g>
		<circle fill="#9D9E9D" cx="237.8" cy="24.2" r="4.6"/>
		<circle fill="#9D9E9D" cx="250.6" cy="24.2" r="4.6"/>
		<circle fill="#9D9E9D" cx="263.3" cy="24.2" r="4.6"/>
	</g>
</g>
<path fill="#FAF8DA" stroke="#FAF8DA" stroke-width="0.356" stroke-miterlimit="10" d="M563.1,32.9v388.1c0,1.3-0.4,2.4-1,2.4H227.9
	c-0.5,0-1-1.1-1-2.4V34.3"/>
<rect x="256.9" y="51.7" fill="none" width="276.4" height="39.5"/>
<text transform="matrix(1 0 0 1 271.1716 67.4068)" fill="#205D76" font-family="'OpenSans-Bold'" font-size="20.65">Welcome To Tuts+ Town</text>
<path fill="#FFC122" d="M560.1,426H229.9c-1.6,0-3-1.4-3-3v-19.6c0-1.6,1.4-3,3-3h330.2c1.7,0,3,1.4,3,3V423
	C563.1,424.6,561.8,426,560.1,426z"/>
<rect x="226.9" y="394.6" fill="#FAF8DA" width="336.2" height="13"/>
<g>
	<path fill="#FFFFFF" d="M332.6,418.7c-0.2,0.1-0.7,0.2-1.3,0.2c-1.4,0-2.4-0.9-2.4-2.4c0-1.5,1-2.5,2.5-2.5c0.6,0,1,0.1,1.1,0.2
		l-0.1,0.5c-0.2-0.1-0.6-0.2-1-0.2c-1.1,0-1.9,0.7-1.9,2c0,1.2,0.7,1.9,1.8,1.9c0.4,0,0.8-0.1,1-0.2L332.6,418.7z"/>
	<path fill="#FFFFFF" d="M333.3,416.5c0-0.4,0-0.8,0-1.1h0.5l0,0.7h0c0.2-0.5,0.5-0.8,1-0.8c0.1,0,0.1,0,0.2,0v0.6
		c-0.1,0-0.1,0-0.2,0c-0.4,0-0.8,0.3-0.8,0.8c0,0.1,0,0.2,0,0.3v1.8h-0.6V416.5z"/>
	<path fill="#FFFFFF" d="M335.9,417.2c0,0.8,0.6,1.2,1.2,1.2c0.4,0,0.7-0.1,1-0.2l0.1,0.4c-0.2,0.1-0.6,0.2-1.1,0.2
		c-1.1,0-1.7-0.7-1.7-1.7c0-1,0.6-1.9,1.6-1.9c1.1,0,1.4,1,1.4,1.6c0,0.1,0,0.2,0,0.3H335.9z M337.7,416.8c0-0.4-0.2-1-0.9-1
		c-0.6,0-0.9,0.6-1,1H337.7z"/>
	<path fill="#FFFFFF" d="M341,418.8l-0.1-0.4h0c-0.2,0.3-0.6,0.5-1.1,0.5c-0.7,0-1.1-0.5-1.1-1c0-0.8,0.7-1.3,2.1-1.3v-0.1
		c0-0.3-0.1-0.8-0.8-0.8c-0.3,0-0.7,0.1-0.9,0.3l-0.1-0.4c0.3-0.2,0.7-0.3,1.1-0.3c1.1,0,1.3,0.7,1.3,1.4v1.3c0,0.3,0,0.6,0.1,0.8
		H341z M340.9,417.1c-0.7,0-1.5,0.1-1.5,0.8c0,0.4,0.3,0.6,0.6,0.6c0.4,0,0.7-0.3,0.8-0.6c0-0.1,0-0.1,0-0.2V417.1z"/>
	<path fill="#FFFFFF" d="M343.3,414.4v1h0.9v0.5h-0.9v1.9c0,0.4,0.1,0.7,0.5,0.7c0.2,0,0.3,0,0.4,0l0,0.5c-0.1,0.1-0.3,0.1-0.6,0.1
		c-0.3,0-0.5-0.1-0.7-0.3c-0.2-0.2-0.2-0.5-0.2-0.9v-1.9h-0.5v-0.5h0.5v-0.8L343.3,414.4z"/>
	<path fill="#FFFFFF" d="M345.2,417.2c0,0.8,0.6,1.2,1.2,1.2c0.4,0,0.7-0.1,1-0.2l0.1,0.4c-0.2,0.1-0.6,0.2-1.1,0.2
		c-1.1,0-1.7-0.7-1.7-1.7c0-1,0.6-1.9,1.6-1.9c1.1,0,1.4,1,1.4,1.6c0,0.1,0,0.2,0,0.3H345.2z M347,416.8c0-0.4-0.2-1-0.9-1
		c-0.6,0-0.9,0.6-1,1H347z"/>
	<path fill="#FFFFFF" d="M351.4,413.8v4.2c0,0.3,0,0.7,0,0.9h-0.6l0-0.6h0c-0.2,0.4-0.6,0.7-1.2,0.7c-0.8,0-1.5-0.7-1.5-1.8
		c0-1.1,0.7-1.9,1.5-1.9c0.5,0,0.9,0.2,1,0.5h0v-2.1H351.4z M350.8,416.8c0-0.1,0-0.2,0-0.3c-0.1-0.4-0.4-0.7-0.9-0.7
		c-0.6,0-1,0.6-1,1.3c0,0.7,0.3,1.3,1,1.3c0.4,0,0.8-0.3,0.9-0.7c0-0.1,0-0.2,0-0.3V416.8z"/>
	<path fill="#FFFFFF" d="M354.2,415.4l0.5,1.8c0.1,0.4,0.2,0.7,0.3,1.1h0c0.1-0.3,0.2-0.7,0.3-1.1l0.6-1.8h0.5l0.5,1.7
		c0.1,0.4,0.2,0.8,0.3,1.1h0c0.1-0.3,0.1-0.7,0.3-1.1l0.5-1.7h0.6l-1.1,3.4h-0.6l-0.5-1.6c-0.1-0.4-0.2-0.7-0.3-1.1h0
		c-0.1,0.4-0.2,0.8-0.3,1.1l-0.6,1.6h-0.6l-1-3.4H354.2z"/>
	<path fill="#FFFFFF" d="M359.9,414.4c0,0.2-0.1,0.4-0.4,0.4c-0.2,0-0.4-0.2-0.4-0.4c0-0.2,0.2-0.4,0.4-0.4
		C359.7,414,359.9,414.2,359.9,414.4z M359.2,418.8v-3.4h0.6v3.4H359.2z"/>
	<path fill="#FFFFFF" d="M361.6,414.4v1h0.9v0.5h-0.9v1.9c0,0.4,0.1,0.7,0.5,0.7c0.2,0,0.3,0,0.4,0l0,0.5c-0.1,0.1-0.3,0.1-0.6,0.1
		c-0.3,0-0.5-0.1-0.7-0.3c-0.2-0.2-0.2-0.5-0.2-0.9v-1.9h-0.5v-0.5h0.5v-0.8L361.6,414.4z"/>
	<path fill="#FFFFFF" d="M363.2,413.8h0.6v2.1h0c0.1-0.2,0.3-0.3,0.4-0.4c0.2-0.1,0.4-0.2,0.6-0.2c0.5,0,1.2,0.3,1.2,1.5v2h-0.6v-2
		c0-0.6-0.2-1-0.8-1c-0.4,0-0.7,0.3-0.8,0.6c0,0.1,0,0.2,0,0.3v2.1h-0.6V413.8z"/>
	<path fill="#FFFFFF" d="M369,417.2c0,0.8,0.6,1.2,1.2,1.2c0.4,0,0.7-0.1,1-0.2l0.1,0.4c-0.2,0.1-0.6,0.2-1.1,0.2
		c-1.1,0-1.7-0.7-1.7-1.7c0-1,0.6-1.9,1.6-1.9c1.1,0,1.4,1,1.4,1.6c0,0.1,0,0.2,0,0.3H369z M370.8,416.8c0-0.4-0.2-1-0.9-1
		c-0.6,0-0.9,0.6-1,1H370.8z"/>
	<path fill="#FFFFFF" d="M372.2,416.3c0-0.4,0-0.6,0-0.9h0.6l0,0.6h0c0.2-0.3,0.6-0.6,1.1-0.6c0.5,0,1.2,0.3,1.2,1.5v2.1h-0.6v-2
		c0-0.6-0.2-1-0.8-1c-0.4,0-0.7,0.3-0.8,0.6c0,0.1,0,0.2,0,0.3v2.1h-0.6V416.3z"/>
	<path fill="#FFFFFF" d="M376.9,414.4v1h0.9v0.5h-0.9v1.9c0,0.4,0.1,0.7,0.5,0.7c0.2,0,0.3,0,0.4,0l0,0.5c-0.1,0.1-0.3,0.1-0.6,0.1
		c-0.3,0-0.5-0.1-0.7-0.3c-0.2-0.2-0.2-0.5-0.2-0.9v-1.9h-0.5v-0.5h0.5v-0.8L376.9,414.4z"/>
	<path fill="#FFFFFF" d="M378.5,413.8h0.6v2.1h0c0.1-0.2,0.3-0.3,0.4-0.4c0.2-0.1,0.4-0.2,0.6-0.2c0.5,0,1.2,0.3,1.2,1.5v2h-0.6v-2
		c0-0.6-0.2-1-0.8-1c-0.4,0-0.7,0.3-0.8,0.6c0,0.1,0,0.2,0,0.3v2.1h-0.6V413.8z"/>
	<path fill="#FFFFFF" d="M385.3,417.9c0,0.4,0,0.7,0,0.9h-0.6l0-0.6h0c-0.2,0.3-0.5,0.6-1.1,0.6c-0.5,0-1.2-0.3-1.2-1.5v-2h0.6v1.9
		c0,0.7,0.2,1.1,0.8,1.1c0.4,0,0.7-0.3,0.8-0.6c0-0.1,0.1-0.2,0.1-0.3v-2.1h0.6V417.9z"/>
	<path fill="#FFFFFF" d="M386.3,418.2c0.2,0.1,0.5,0.2,0.8,0.2c0.5,0,0.7-0.2,0.7-0.5c0-0.3-0.2-0.5-0.6-0.6c-0.6-0.2-0.9-0.6-0.9-1
		c0-0.6,0.4-1,1.2-1c0.3,0,0.7,0.1,0.8,0.2l-0.2,0.5c-0.1-0.1-0.4-0.2-0.7-0.2c-0.4,0-0.6,0.2-0.6,0.5c0,0.3,0.2,0.4,0.7,0.6
		c0.6,0.2,0.9,0.5,0.9,1c0,0.6-0.5,1-1.3,1c-0.4,0-0.7-0.1-1-0.2L386.3,418.2z"/>
	<path fill="#FFFFFF" d="M389.9,414.4c0,0.2-0.1,0.4-0.4,0.4c-0.2,0-0.4-0.2-0.4-0.4c0-0.2,0.2-0.4,0.4-0.4
		C389.8,414,389.9,414.2,389.9,414.4z M389.2,418.8v-3.4h0.6v3.4H389.2z"/>
	<path fill="#FFFFFF" d="M392.8,418.8l-0.1-0.4h0c-0.2,0.3-0.6,0.5-1.1,0.5c-0.7,0-1.1-0.5-1.1-1c0-0.8,0.7-1.3,2.1-1.3v-0.1
		c0-0.3-0.1-0.8-0.8-0.8c-0.3,0-0.7,0.1-0.9,0.3l-0.1-0.4c0.3-0.2,0.7-0.3,1.1-0.3c1.1,0,1.3,0.7,1.3,1.4v1.3c0,0.3,0,0.6,0.1,0.8
		H392.8z M392.7,417.1c-0.7,0-1.5,0.1-1.5,0.8c0,0.4,0.3,0.6,0.6,0.6c0.4,0,0.7-0.3,0.8-0.6c0-0.1,0-0.1,0-0.2V417.1z"/>
	<path fill="#FFFFFF" d="M394.2,418.2c0.2,0.1,0.5,0.2,0.8,0.2c0.5,0,0.7-0.2,0.7-0.5c0-0.3-0.2-0.5-0.6-0.6c-0.6-0.2-0.9-0.6-0.9-1
		c0-0.6,0.4-1,1.2-1c0.3,0,0.7,0.1,0.8,0.2L396,416c-0.1-0.1-0.4-0.2-0.7-0.2c-0.4,0-0.6,0.2-0.6,0.5c0,0.3,0.2,0.4,0.7,0.6
		c0.6,0.2,0.9,0.5,0.9,1c0,0.6-0.5,1-1.3,1c-0.4,0-0.7-0.1-1-0.2L394.2,418.2z"/>
	<path fill="#FFFFFF" d="M397.1,416.3c0-0.4,0-0.6,0-0.9h0.5l0,0.6h0c0.2-0.3,0.5-0.6,1.1-0.6c0.5,0,0.8,0.3,1,0.7h0
		c0.1-0.2,0.2-0.3,0.4-0.4c0.2-0.2,0.4-0.2,0.8-0.2c0.5,0,1.1,0.3,1.1,1.5v2h-0.6v-1.9c0-0.7-0.2-1.1-0.7-1.1
		c-0.4,0-0.6,0.3-0.7,0.6c0,0.1-0.1,0.2-0.1,0.3v2.1h-0.6v-2.1c0-0.5-0.2-0.9-0.7-0.9c-0.4,0-0.7,0.3-0.8,0.6c0,0.1-0.1,0.2-0.1,0.3
		v2.1h-0.6V416.3z"/>
	<path fill="#FFFFFF" d="M404.5,418.8c0-0.2,0-0.6,0-0.9v-4.2h0.6v2.2h0c0.2-0.4,0.6-0.6,1.2-0.6c0.9,0,1.5,0.7,1.5,1.8
		c0,1.2-0.8,1.8-1.5,1.8c-0.5,0-0.9-0.2-1.2-0.6h0l0,0.6H404.5z M405.2,417.5c0,0.1,0,0.2,0,0.2c0.1,0.4,0.5,0.7,0.9,0.7
		c0.7,0,1-0.5,1-1.3c0-0.7-0.4-1.3-1-1.3c-0.4,0-0.8,0.3-1,0.8c0,0.1,0,0.2,0,0.3V417.5z"/>
	<path fill="#FFFFFF" d="M408.8,415.4l0.8,2c0.1,0.2,0.2,0.5,0.2,0.7h0c0.1-0.2,0.1-0.5,0.2-0.7l0.7-2h0.7l-0.9,2.5
		c-0.4,1.2-0.8,1.8-1.2,2.2c-0.3,0.3-0.6,0.4-0.8,0.4l-0.2-0.5c0.2,0,0.4-0.1,0.5-0.3c0.2-0.1,0.4-0.4,0.5-0.7c0-0.1,0-0.1,0-0.1
		s0-0.1,0-0.2l-1.3-3.2H408.8z"/>
	<path fill="#FFFFFF" d="M415.9,418.7c-0.2,0.1-0.5,0.2-1,0.2c-1,0-1.7-0.7-1.7-1.8c0-1.1,0.7-1.8,1.9-1.8c0.4,0,0.7,0.1,0.9,0.2
		l-0.1,0.5c-0.1-0.1-0.4-0.2-0.7-0.2c-0.8,0-1.2,0.6-1.2,1.3c0,0.8,0.5,1.3,1.2,1.3c0.4,0,0.6-0.1,0.8-0.2L415.9,418.7z"/>
	<path fill="#FFFFFF" d="M418.5,418.8l-0.1-0.4h0c-0.2,0.3-0.6,0.5-1.1,0.5c-0.7,0-1.1-0.5-1.1-1c0-0.8,0.7-1.3,2.1-1.3v-0.1
		c0-0.3-0.1-0.8-0.8-0.8c-0.3,0-0.7,0.1-0.9,0.3l-0.1-0.4c0.3-0.2,0.7-0.3,1.1-0.3c1.1,0,1.3,0.7,1.3,1.4v1.3c0,0.3,0,0.6,0.1,0.8
		H418.5z M418.4,417.1c-0.7,0-1.5,0.1-1.5,0.8c0,0.4,0.3,0.6,0.6,0.6c0.4,0,0.7-0.3,0.8-0.6c0-0.1,0-0.1,0-0.2V417.1z"/>
	<path fill="#FFFFFF" d="M420.1,416.5c0-0.4,0-0.8,0-1.1h0.5l0,0.7h0c0.2-0.5,0.5-0.8,1-0.8c0.1,0,0.1,0,0.2,0v0.6
		c-0.1,0-0.1,0-0.2,0c-0.4,0-0.8,0.3-0.8,0.8c0,0.1,0,0.2,0,0.3v1.8h-0.6V416.5z"/>
	<path fill="#FFFFFF" d="M423.1,414.4c0,0.2-0.1,0.4-0.4,0.4c-0.2,0-0.4-0.2-0.4-0.4c0-0.2,0.2-0.4,0.4-0.4
		C423,414,423.1,414.2,423.1,414.4z M422.4,418.8v-3.4h0.6v3.4H422.4z"/>
	<path fill="#FFFFFF" d="M424.1,416.3c0-0.4,0-0.6,0-0.9h0.6l0,0.6h0c0.2-0.3,0.6-0.6,1.1-0.6c0.5,0,1.2,0.3,1.2,1.5v2.1h-0.6v-2
		c0-0.6-0.2-1-0.8-1c-0.4,0-0.7,0.3-0.8,0.6c0,0.1,0,0.2,0,0.3v2.1h-0.6V416.3z"/>
	<path fill="#FFFFFF" d="M431,415.4c0,0.2,0,0.5,0,0.9v2c0,0.8-0.2,1.3-0.5,1.6c-0.3,0.3-0.8,0.4-1.3,0.4c-0.4,0-0.9-0.1-1.1-0.3
		l0.2-0.5c0.2,0.1,0.6,0.3,1,0.3c0.6,0,1.1-0.3,1.1-1.2v-0.4h0c-0.2,0.3-0.6,0.6-1.1,0.6c-0.9,0-1.5-0.7-1.5-1.7
		c0-1.2,0.8-1.8,1.6-1.8c0.6,0,0.9,0.3,1.1,0.6h0l0-0.5H431z M430.4,416.7c0-0.1,0-0.2,0-0.3c-0.1-0.4-0.4-0.7-0.9-0.7
		c-0.6,0-1,0.5-1,1.3c0,0.7,0.3,1.2,1,1.2c0.4,0,0.7-0.2,0.9-0.6c0-0.1,0.1-0.2,0.1-0.3V416.7z"/>
	<path fill="#FFFFFF" d="M433.5,416.5c0-0.4,0-0.8,0-1.1h0.5l0,0.7h0c0.2-0.5,0.5-0.8,1-0.8c0.1,0,0.1,0,0.2,0v0.6
		c-0.1,0-0.1,0-0.2,0c-0.4,0-0.8,0.3-0.8,0.8c0,0.1,0,0.2,0,0.3v1.8h-0.6V416.5z"/>
	<path fill="#FFFFFF" d="M436.1,417.2c0,0.8,0.6,1.2,1.2,1.2c0.4,0,0.7-0.1,1-0.2l0.1,0.4c-0.2,0.1-0.6,0.2-1.1,0.2
		c-1.1,0-1.7-0.7-1.7-1.7c0-1,0.6-1.9,1.6-1.9c1.1,0,1.4,1,1.4,1.6c0,0.1,0,0.2,0,0.3H436.1z M438,416.8c0-0.4-0.2-1-0.9-1
		c-0.6,0-0.9,0.6-1,1H438z"/>
	<path fill="#FFFFFF" d="M439.3,418.2c0.2,0.1,0.5,0.2,0.8,0.2c0.5,0,0.7-0.2,0.7-0.5c0-0.3-0.2-0.5-0.6-0.6c-0.6-0.2-0.9-0.6-0.9-1
		c0-0.6,0.4-1,1.2-1c0.3,0,0.7,0.1,0.8,0.2l-0.2,0.5c-0.1-0.1-0.4-0.2-0.7-0.2c-0.4,0-0.6,0.2-0.6,0.5c0,0.3,0.2,0.4,0.7,0.6
		c0.6,0.2,0.9,0.5,0.9,1c0,0.6-0.5,1-1.3,1c-0.4,0-0.7-0.1-1-0.2L439.3,418.2z"/>
	<path fill="#FFFFFF" d="M442.9,414.4c0,0.2-0.1,0.4-0.4,0.4c-0.2,0-0.4-0.2-0.4-0.4c0-0.2,0.2-0.4,0.4-0.4
		C442.7,414,442.9,414.2,442.9,414.4z M442.2,418.8v-3.4h0.6v3.4H442.2z"/>
	<path fill="#FFFFFF" d="M446.8,413.8v4.2c0,0.3,0,0.7,0,0.9h-0.6l0-0.6h0c-0.2,0.4-0.6,0.7-1.2,0.7c-0.8,0-1.5-0.7-1.5-1.8
		c0-1.1,0.7-1.9,1.5-1.9c0.5,0,0.9,0.2,1,0.5h0v-2.1H446.8z M446.2,416.8c0-0.1,0-0.2,0-0.3c-0.1-0.4-0.4-0.7-0.9-0.7
		c-0.6,0-1,0.6-1,1.3c0,0.7,0.3,1.3,1,1.3c0.4,0,0.8-0.3,0.9-0.7c0-0.1,0-0.2,0-0.3V416.8z"/>
	<path fill="#FFFFFF" d="M448.2,417.2c0,0.8,0.6,1.2,1.2,1.2c0.4,0,0.7-0.1,1-0.2l0.1,0.4c-0.2,0.1-0.6,0.2-1.1,0.2
		c-1.1,0-1.7-0.7-1.7-1.7c0-1,0.6-1.9,1.6-1.9c1.1,0,1.4,1,1.4,1.6c0,0.1,0,0.2,0,0.3H448.2z M450,416.8c0-0.4-0.2-1-0.9-1
		c-0.6,0-0.9,0.6-1,1H450z"/>
	<path fill="#FFFFFF" d="M451.4,416.3c0-0.4,0-0.6,0-0.9h0.6l0,0.6h0c0.2-0.3,0.6-0.6,1.1-0.6c0.5,0,1.2,0.3,1.2,1.5v2.1h-0.6v-2
		c0-0.6-0.2-1-0.8-1c-0.4,0-0.7,0.3-0.8,0.6c0,0.1,0,0.2,0,0.3v2.1h-0.6V416.3z"/>
	<path fill="#FFFFFF" d="M456.1,414.4v1h0.9v0.5h-0.9v1.9c0,0.4,0.1,0.7,0.5,0.7c0.2,0,0.3,0,0.4,0l0,0.5c-0.1,0.1-0.3,0.1-0.6,0.1
		c-0.3,0-0.5-0.1-0.7-0.3c-0.2-0.2-0.2-0.5-0.2-0.9v-1.9h-0.5v-0.5h0.5v-0.8L456.1,414.4z"/>
	<path fill="#FFFFFF" d="M457.6,418.2c0.2,0.1,0.5,0.2,0.8,0.2c0.5,0,0.7-0.2,0.7-0.5c0-0.3-0.2-0.5-0.6-0.6c-0.6-0.2-0.9-0.6-0.9-1
		c0-0.6,0.4-1,1.2-1c0.3,0,0.7,0.1,0.8,0.2l-0.2,0.5c-0.1-0.1-0.4-0.2-0.7-0.2c-0.4,0-0.6,0.2-0.6,0.5c0,0.3,0.2,0.4,0.7,0.6
		c0.6,0.2,0.9,0.5,0.9,1c0,0.6-0.5,1-1.3,1c-0.4,0-0.7-0.1-1-0.2L457.6,418.2z"/>
	<path fill="#FFFFFF" d="M460.3,418.5c0-0.3,0.2-0.4,0.4-0.4c0.2,0,0.4,0.2,0.4,0.4c0,0.3-0.2,0.4-0.4,0.4
		C460.5,418.9,460.3,418.7,460.3,418.5z"/>
</g>
<g>
	<g>
		<g>
			<path fill="#FFC122" d="M411.6,84.8c18,0,36.1,0,54.1,0c9.4,0,18.8,0,28.3,0c0.9,0,1.8,0,2.7,0c1,0-0.2-1-0.1-0.3
				c0.1,2.5,0,4.9,0,7.4c0,22.4,0,44.7,0,67.1c0,3.3-0.3,6.7,0,9.9c0,0.5,0.1,1.2,0,1.7c0.1-0.5,1.1-0.6,0.2-0.6
				c-4.1-0.1-8.3,0-12.4,0c-44.4,0-88.9,0-133.3,0c-17.2,0-34.4,0-51.7,0c-1.5,0-3.7-0.4-5.2,0c-1.6,0.4-0.5,0.3-0.5,0.1
				c0.6-7.5,0-15.3,0-22.8c0-12.3,0-24.6,0-36.8c0-5.2,0-10.4,0-15.6c0-2.8,0.6-6.6,0-9.3c-0.1-0.5,0.3-1.6-0.3-1
				c-0.7,0.7,1.2,0.3,1.8,0.3c4.3,0,8.6,0,12.9,0c11.6,0,23.2,0,34.8,0c2.4,0,4.7,0,7.1,0c0.9,0,0.9-1.4,0-1.4c-19,0-38,0-57,0
				c-0.4,0-0.7,0.3-0.7,0.7c0,25.2,0,50.3,0,75.5c0,3.7,0,7.3,0,11c0,0.4,0.3,0.7,0.7,0.7c23.1,0,46.2,0,69.2,0
				c36.6,0,73.2,0,109.8,0c8.4,0,16.9,0,25.3,0c0.4,0,0.7-0.3,0.7-0.7c0-25.2,0-50.3,0-75.5c0-3.7,0-7.3,0-11c0-0.4-0.3-0.7-0.7-0.7
				c-25,0-49.9,0-74.9,0c-3.6,0-7.1,0-10.7,0C410.7,83.4,410.7,84.8,411.6,84.8L411.6,84.8z"/>
		</g>
	</g>
	<path fill="#FFFFFF" d="M441.9,111.4c0,0.7-0.2,1.4-0.5,2c-0.6,1-1.5,1.7-2.7,1.9c-0.2,0-0.3,0-0.5,0h-23.5c-0.1,0-0.2,0-0.4,0
		c-0.1,0-0.2,0-0.4,0c-2.2,0-4-1.8-4-4c0-2.2,1.8-4,4-4c0.2,0,0.4,0,0.6,0c-0.1-0.9-0.1-1.9,0.2-2.9c1-3.6,4.8-5.7,8.4-4.7
		c1.8,0.5,3.3,1.8,4.1,3.3c0.9-0.5,1.9-0.8,3-0.8c3.1,0,5.6,2.5,5.7,5.5c0.6-0.3,1.3-0.5,2-0.5C440.2,107.4,441.9,109.2,441.9,111.4
		z"/>
	<path fill="#FFFFFF" d="M489.6,91.3c0,0.7-0.2,1.4-0.5,2c-0.6,1-1.5,1.7-2.7,1.9c-0.2,0-0.3,0-0.5,0h-23.5c-0.1,0-0.2,0-0.4,0
		c-0.1,0-0.2,0-0.4,0c-2.2,0-4-1.8-4-4c0-2.2,1.8-4,4-4c0.2,0,0.4,0,0.6,0c-0.1-0.9-0.1-1.9,0.2-2.9c1-3.6,4.8-5.7,8.4-4.7
		c1.8,0.5,3.3,1.8,4.1,3.3c0.9-0.5,1.9-0.8,3-0.8c3.1,0,5.6,2.5,5.7,5.5c0.6-0.3,1.3-0.5,2-0.5C487.8,87.3,489.6,89.1,489.6,91.3z"
		/>
	<path fill="#FFFFFF" d="M368.9,101.3c0,0.7-0.2,1.4-0.5,2c-0.6,1-1.5,1.7-2.7,1.9c-0.2,0-0.3,0-0.5,0h-23.5c-0.1,0-0.2,0-0.4,0
		c-0.1,0-0.2,0-0.4,0c-2.2,0-4-1.8-4-4c0-2.2,1.8-4,4-4c0.2,0,0.4,0,0.6,0c-0.1-0.9-0.1-1.9,0.2-2.9c1-3.6,4.8-5.7,8.4-4.7
		c1.8,0.5,3.3,1.8,4.1,3.3c0.9-0.5,1.9-0.8,3-0.8c3.1,0,5.6,2.5,5.7,5.5c0.6-0.3,1.3-0.5,2-0.5C367.2,97.3,368.9,99.1,368.9,101.3z"
		/>
	<line fill="none" stroke="#FFC122" stroke-width="0.4071" stroke-miterlimit="10" x1="370" y1="163.8" x2="382.3" y2="163.8"/>
	<line fill="none" stroke="#FFC122" stroke-width="0.4071" stroke-miterlimit="10" x1="370" y1="164" x2="382.4" y2="164"/>
	<polyline fill="#FFC122" points="365.7,171.1 365.7,126.5 386.9,126.5 386.9,170.9 	"/>
	<rect x="376.4" y="89.2" fill="#62D4D4" width="15.4" height="5.3"/>
	<path fill="#205D76" d="M377,102.6c0,8.1-0.4,14.7-0.6,14.7s-0.6-6.6-0.6-14.7s0.4-14.7,0.6-14.7S377,94.5,377,102.6z"/>
	<circle fill="#205D76" cx="376.4" cy="88.1" r="0.7"/>
	<circle fill="#205D76" cx="376.4" cy="95.3" r="0.8"/>
	<polygon fill="#62D4D4" points="409.2,97.2 391.6,97.2 391.6,91.9 409.2,91.9 404.6,94.7 	"/>
	<rect x="379.3" y="90.1" fill="none" width="19.7" height="6.9"/>
	<text transform="matrix(1 0 0 1 379.3474 92.9322)" fill="#205D76" font-family="'OpenSans-Semibold'" font-size="3.7066">tuts</text>
	<rect x="394" y="92.7" fill="none" width="19.7" height="5.5"/>
	<text transform="matrix(1 0 0 1 393.9558 95.5148)" fill="#205D76" font-family="'OpenSans-Semibold'" font-size="3.7066">town</text>
	<g>
		<path fill="#205D76" stroke="#205D76" stroke-width="0.2074" stroke-miterlimit="10" d="M387.3,91.1v0.6h0.5v0.2h-0.5v0.6h-0.2
			v-0.6h-0.5v-0.2h0.5v-0.6H387.3z"/>
	</g>
	<ellipse fill="#205D76" stroke="#205D76" stroke-width="0.2074" stroke-miterlimit="10" cx="376.4" cy="105.3" rx="1.7" ry="0.5"/>
	<polygon fill="#205D76" stroke="#205D76" stroke-width="0.2074" stroke-miterlimit="10" points="376.5,105.3 382.6,115.9 
		388.8,126.6 376.5,126.6 364.1,126.6 370.3,115.9 	"/>
	<ellipse fill="#205D76" stroke="#205D76" stroke-width="0.2074" stroke-miterlimit="10" cx="376.4" cy="112.7" rx="5.6" ry="1"/>
	<path fill="#205D76" stroke="#205D76" stroke-width="0.2556" stroke-miterlimit="10" d="M390.1,125.7c0,1.8-6.1,1.6-13.7,1.6
		c-7.6,0-13.7,0.3-13.7-1.6s6.1-3.3,13.7-3.3C383.9,122.5,390.1,123.9,390.1,125.7z"/>
	<g>
		<path fill="#EA6E2F" d="M386.9,137.9L386.9,137.9c0,0,0,0.1,0,0.1c0,0.9-0.8,1.7-1.7,1.7c-0.6,0-1.2-0.3-1.5-0.9
			c-0.3,0.5-0.8,0.9-1.5,0.9c-0.7,0-1.2-0.4-1.5-0.9c-0.3,0.5-0.8,0.9-1.5,0.9c-0.7,0-1.2-0.4-1.5-0.9c-0.3,0.5-0.8,0.9-1.5,0.9
			c-0.7,0-1.2-0.4-1.5-0.9c-0.3,0.6-0.9,1-1.5,1c-0.6,0-1.2-0.3-1.5-0.9c-0.3,0.5-0.8,0.9-1.5,0.9c-0.6,0-1.1-0.3-1.4-0.8
			c-0.3,0.4-0.8,0.7-1.4,0.7c-0.9,0-1.7-0.8-1.7-1.7v-1.7h21.2V137.9z"/>
	</g>
	<rect x="370.2" y="144.6" fill="#FFFFFF" width="12.4" height="21"/>
	<polygon fill="#FF5774" points="383.8,146.9 368.9,146.9 370.3,144 382.4,144 	"/>
	<line fill="none" stroke="#FFC122" stroke-width="0.4071" stroke-miterlimit="10" x1="372.5" y1="158.5" x2="372.5" y2="166"/>
	<line fill="none" stroke="#FFC122" stroke-width="0.4071" stroke-miterlimit="10" x1="375" y1="158.6" x2="375" y2="166.1"/>
	<line fill="none" stroke="#FFC122" stroke-width="0.4071" stroke-miterlimit="10" x1="377.7" y1="158.5" x2="377.7" y2="166"/>
	<line fill="none" stroke="#FFC122" stroke-width="0.4071" stroke-miterlimit="10" x1="380.3" y1="158.5" x2="380.3" y2="166"/>
	<line fill="none" stroke="#FFC122" stroke-width="0.4071" stroke-miterlimit="10" x1="369.8" y1="163.7" x2="382.8" y2="163.7"/>
	<line fill="none" stroke="#FFC122" stroke-width="0.4071" stroke-miterlimit="10" x1="369.9" y1="160.4" x2="382.9" y2="160.4"/>
	<g>
		<path fill="#FFC122" d="M372.4,157.9c0.1-0.1,0.2-0.1,0.2,0c0.1,0.1,0.2,0.3,0.2,0.4s0,0.2-0.1,0.2s-0.3,0-0.5,0s-0.2-0.1-0.1-0.2
			C372.2,158.2,372.3,158,372.4,157.9z"/>
		<path fill="none" stroke="#FFC122" stroke-width="0.2516" stroke-miterlimit="10" d="M372.4,157.9c0.1-0.1,0.2-0.1,0.2,0
			c0.1,0.1,0.2,0.3,0.2,0.4s0,0.2-0.1,0.2s-0.3,0-0.5,0s-0.2-0.1-0.1-0.2C372.2,158.2,372.3,158,372.4,157.9z"/>
	</g>
	<g>
		<path fill="#FFC122" d="M377.6,157.9c0.1-0.1,0.2-0.1,0.2,0c0.1,0.1,0.2,0.3,0.2,0.4c0.1,0.1,0,0.2-0.1,0.2s-0.3,0-0.5,0
			s-0.2-0.1-0.1-0.2C377.4,158.2,377.5,158,377.6,157.9z"/>
		<path fill="none" stroke="#FFC122" stroke-width="0.2516" stroke-miterlimit="10" d="M377.6,157.9c0.1-0.1,0.2-0.1,0.2,0
			c0.1,0.1,0.2,0.3,0.2,0.4c0.1,0.1,0,0.2-0.1,0.2s-0.3,0-0.5,0s-0.2-0.1-0.1-0.2C377.4,158.2,377.5,158,377.6,157.9z"/>
	</g>
	<g>
		<path fill="#FFC122" d="M374.9,157.9c0.1-0.1,0.2-0.1,0.2,0c0.1,0.1,0.2,0.3,0.2,0.4c0.1,0.1,0,0.2-0.1,0.2c-0.1,0-0.3,0-0.5,0
			s-0.2-0.1-0.1-0.2C374.7,158.2,374.8,158,374.9,157.9z"/>
		<path fill="none" stroke="#FFC122" stroke-width="0.2516" stroke-miterlimit="10" d="M374.9,157.9c0.1-0.1,0.2-0.1,0.2,0
			c0.1,0.1,0.2,0.3,0.2,0.4c0.1,0.1,0,0.2-0.1,0.2c-0.1,0-0.3,0-0.5,0s-0.2-0.1-0.1-0.2C374.7,158.2,374.8,158,374.9,157.9z"/>
	</g>
	<g>
		<path fill="#FFC122" d="M380.1,157.9c0.1-0.1,0.2-0.1,0.2,0c0.1,0.1,0.2,0.3,0.2,0.4c0.1,0.1,0,0.2-0.1,0.2s-0.3,0-0.5,0
			c-0.1,0-0.2-0.1-0.1-0.2C380,158.2,380.1,158,380.1,157.9z"/>
		<path fill="none" stroke="#FFC122" stroke-width="0.2516" stroke-miterlimit="10" d="M380.1,157.9c0.1-0.1,0.2-0.1,0.2,0
			c0.1,0.1,0.2,0.3,0.2,0.4c0.1,0.1,0,0.2-0.1,0.2s-0.3,0-0.5,0c-0.1,0-0.2-0.1-0.1-0.2C380,158.2,380.1,158,380.1,157.9z"/>
	</g>
	<path fill="#FFFFFF" d="M329.6,121.2c0,0.7-0.2,1.4-0.5,2c-0.6,1-1.5,1.7-2.7,1.9c-0.2,0-0.3,0-0.5,0h-23.5c-0.1,0-0.2,0-0.4,0
		c-0.1,0-0.2,0-0.4,0c-2.2,0-4-1.8-4-4c0-2.2,1.8-4,4-4c0.2,0,0.4,0,0.6,0c-0.1-0.9-0.1-1.9,0.2-2.9c1-3.6,4.8-5.7,8.4-4.7
		c1.8,0.5,3.3,1.8,4.1,3.3c0.9-0.5,1.9-0.8,3-0.8c3.1,0,5.6,2.5,5.7,5.5c0.6-0.3,1.3-0.5,2-0.5C327.8,117.2,329.6,119,329.6,121.2z"
		/>
</g>
<circle fill="#62D4D4" stroke="#62D4D4" stroke-width="7.1207" stroke-miterlimit="10" cx="349.2" cy="221" r="23.1"/>
<g>
	<polygon fill="#9A916F" points="344.5,198.6 346.3,199.5 348.1,200.3 344.5,200.3 340.8,200.3 342.6,199.5 	"/>
	<rect x="336.4" y="210.4" fill="#FFC122" width="26.2" height="30.5"/>
	<polygon fill="#664D25" points="362.6,210.5 336.3,210.5 340.8,204.7 358.1,204.7 	"/>
	<rect x="336.4" y="210.4" fill="#FFAAA8" width="26.1" height="2"/>
	<rect x="340.9" y="200.2" fill="#664D25" width="7.2" height="6.4"/>
	<rect x="351.3" y="200.4" fill="#664D25" width="7" height="6.4"/>
	<polygon fill="#9A916F" points="354.8,198.7 356.5,199.6 358.3,200.4 354.8,200.4 351.2,200.4 353,199.6 	"/>
	<path fill="#FFFFFF" d="M343.7,215.2c1.3,0,2.4,1.1,2.4,2.5v4l-4.8,0l0-4C341.4,216.3,342.4,215.2,343.7,215.2L343.7,215.2"/>
	<path fill="#A2A242" stroke="#A2A242" stroke-width="2.8463" stroke-miterlimit="10" d="M346,217.2c0-1.1-1-2-2.3-2s-2.3,0.9-2.3,2
		H346z"/>
	<path fill="#FFFFFF" d="M355.1,215.3c1.3,0,2.4,1.1,2.4,2.5v4l-4.8,0l0-4C352.7,216.4,353.8,215.3,355.1,215.3L355.1,215.3"/>
	<path fill="#A2A242" stroke="#A2A242" stroke-width="2.8463" stroke-miterlimit="10" d="M357.4,217.3c0-1.1-1-2-2.3-2
		s-2.3,0.9-2.3,2H357.4z"/>
	<rect x="343" y="201.3" fill="#FFFFFF" width="2.9" height="2.5"/>
	<rect x="353.4" y="201.4" fill="#FFFFFF" width="2.9" height="2.5"/>
	<path fill="#FF5774" stroke="#FF5774" stroke-width="3.0952" stroke-miterlimit="10" d="M351.7,239.3c0-3.3-1-6-2.3-6
		s-2.3,2.7-2.3,6H351.7z"/>
	<path fill="#FFFFFF" d="M343.7,224.3c1.3,0,2.4,1.1,2.4,2.5v4l-4.8,0l0-4C341.4,225.4,342.4,224.3,343.7,224.3L343.7,224.3"/>
	<path fill="#A2A242" stroke="#A2A242" stroke-width="2.8463" stroke-miterlimit="10" d="M346,226.3c0-1.1-1-2-2.3-2s-2.3,0.9-2.3,2
		H346z"/>
	<path fill="#FFFFFF" d="M355.1,224.4c1.3,0,2.4,1.1,2.4,2.5v4l-4.8,0l0-4C352.7,225.5,353.8,224.4,355.1,224.4L355.1,224.4"/>
	<path fill="#A2A242" stroke="#A2A242" stroke-width="2.8463" stroke-miterlimit="10" d="M357.4,226.4c0-1.1-1-2-2.3-2
		s-2.3,0.9-2.3,2H357.4z"/>
</g>
<rect x="394.5" y="204.7" fill="none" width="35.3" height="15.3"/>
<text transform="matrix(1 0 0 1 394.4802 213.4718)" fill="#205D76" font-family="'OpenSans-Semibold'" font-size="11.5097">Sleep</text>
<circle fill="#FFC122" cx="396.3" cy="226" r="1.1"/>
<rect x="392.4" y="222.2" fill="none" width="71.6" height="8.1"/>
<text transform="matrix(1 0 0 1 402.697 227.6593)" fill="#EA6E2F" font-family="'OpenSans'" font-size="7.1207">The Snooze Inn</text>
<rect x="382.1" y="234.6" fill="none" width="71.6" height="15.7"/>
<text transform="matrix(1 0 0 1 402.657 239.9952)" fill="#EA6E2F" font-family="'OpenSans'" font-size="7.1207">Zzz Hotel</text>
<line fill="none" stroke="#EA6E2F" stroke-width="0.4984" stroke-miterlimit="10" x1="403.5" y1="229.1" x2="454.3" y2="229.1"/>
<line fill="none" stroke="#EA6E2F" stroke-width="0.4984" stroke-miterlimit="10" x1="402.8" y1="241.3" x2="433.4" y2="241.3"/>
<circle fill="#FFA09E" stroke="#FFA09E" stroke-width="7.1207" stroke-miterlimit="10" cx="350" cy="291.3" r="23.4"/>
<rect x="394.7" y="274.3" fill="none" width="48.6" height="36.7"/>
<text transform="matrix(1 0 0 1 394.6716 283.0402)" fill="#205D76" font-family="'OpenSans-Semibold'" font-size="11.5097">Food</text>
<g>
	<path fill="#A2A242" d="M362.6,280.1v31h-24.6c0,0,0-30.9,0-31c0,0,2.7-0.9,2.9-1c1.1-0.5,2.1-1.1,2.9-1.8c1.7-1.4,2.1-2.9,2.1-4.7
		c0-1.7,1.9-3,4.2-3c1.2,0,2.2,0.3,3,0.9c0.8,0.5,1.2,1.3,1.2,2.1c0,1.9,0.5,3.3,2.2,4.7C358.1,278.7,360.2,279.7,362.6,280.1z"/>
	<g>
		<circle fill="#62D4D4" cx="350" cy="278.7" r="2.4"/>
		<g>
			
				<line fill="none" stroke="#205D76" stroke-width="0.2125" stroke-linecap="round" stroke-linejoin="round" stroke-miterlimit="10" x1="350" y1="278.8" x2="350" y2="277.3"/>
			
				<line fill="none" stroke="#205D76" stroke-width="0.2125" stroke-linecap="round" stroke-linejoin="round" stroke-miterlimit="10" x1="350" y1="278.8" x2="351.5" y2="278.8"/>
		</g>
	</g>
	<g>
		<path fill="#FFFFFF" d="M344.6,284.4c1.5,0,2.7,1,2.7,2.3v3.8l-5.3,0l0-3.8C341.9,285.4,343.1,284.4,344.6,284.4L344.6,284.4"/>
		<rect x="341.9" y="290.4" fill="#FFAAA8" width="5.3" height="0.6"/>
	</g>
	<g>
		<path fill="#FFFFFF" d="M355.5,284.4c1.5,0,2.7,1,2.7,2.3v3.8l-5.3,0l0-3.8C352.9,285.5,354.1,284.4,355.5,284.4L355.5,284.4"/>
		<rect x="352.9" y="290.5" fill="#FFAAA8" width="5.3" height="0.6"/>
	</g>
	<g>
		<path fill="#FFFFFF" d="M350.1,293.5c3.3,0,5.9,1,5.9,2.3v3.8l-11.9,0l0.1-3.8C344.2,294.6,346.9,293.5,350.1,293.5L350.1,293.5"
			/>
		<rect x="344.1" y="299.6" fill="#FFAAA8" width="11.9" height="0.6"/>
	</g>
	<g>
		<path fill="#FFAAA8" stroke="#FFAAA8" stroke-width="0.1244" stroke-miterlimit="10" d="M350,302.5c3,0,5.5,0.7,5.5,1.5l-4.9,2.3
			l-3.9-0.6l-2.2-1.7C344.5,303.2,347,302.5,350,302.5L350,302.5"/>
		<rect x="344.5" y="303.9" fill="#FFD265" width="11.1" height="7.3"/>
		<line fill="none" stroke="#A2A242" stroke-width="0.8746" stroke-miterlimit="10" x1="350.1" y1="303.9" x2="350.1" y2="311.1"/>
	</g>
</g>
<rect x="387.8" y="292" fill="none" width="71.6" height="15.7"/>
<text transform="matrix(1 0 0 1 403.5916 297.4406)" fill="#EA6E2F" font-family="'OpenSans'" font-size="7.1207">Just Cookies</text>
<rect x="382.2" y="304" fill="none" width="71.6" height="15.7"/>
<text transform="matrix(1 0 0 1 402.6931 309.4415)" fill="#EA6E2F" font-family="'OpenSans'" font-size="7.1207">Cake Too</text>
<line fill="none" stroke="#EA6E2F" stroke-width="0.4984" stroke-miterlimit="10" x1="403.4" y1="310.4" x2="434" y2="310.4"/>
<line fill="none" stroke="#EA6E2F" stroke-width="0.4984" stroke-miterlimit="10" x1="402.3" y1="299" x2="443.3" y2="299"/>
<circle fill="#A2A242" stroke="#A2A242" stroke-width="7.1207" stroke-miterlimit="10" cx="350.3" cy="359.5" r="23.4"/>
<g>
	<rect x="394.9" y="341.2" fill="none" width="54.1" height="16.1"/>
	<text transform="matrix(1 0 0 1 394.947 349.9366)" fill="#205D76" font-family="'OpenSans-Semibold'" font-size="11.5097">Shop</text>
</g>
<g>
	<g>
		<rect x="333.8" y="360.4" fill="#FFA09E" width="32" height="17.2"/>
		<rect x="335.5" y="349.8" fill="#FFA09E" width="28.5" height="10.9"/>
		<rect x="339.2" y="341.9" fill="#FFA09E" width="20.9" height="8"/>
		<polygon fill="#205D76" points="349.6,338.6 354.8,340.3 360,341.9 349.6,341.9 339.2,341.9 344.4,340.3 		"/>
		<rect x="346.4" y="369.7" fill="#205D76" width="6.6" height="7.9"/>
		<rect x="335.5" y="349.8" fill="#205D76" width="28.5" height="1.2"/>
		<rect x="333.8" y="360.4" fill="#205D76" width="32" height="1"/>
		<path fill="#FFFFFF" d="M355.7,348c0-2.4-2.7-4.3-6-4.3c-3.3,0-6,1.9-6,4.3H355.7z"/>
		<rect x="343.7" y="348" fill="#205D76" width="12.3" height="0.4"/>
		<path fill="#FFFFFF" d="M352.9,369.7c0-0.9-1.4-1.7-3.2-1.7c-1.8,0-3.2,0.7-3.2,1.7H352.9z"/>
		<rect x="339.2" y="352.6" fill="#FFD265" width="8.1" height="5.3"/>
		<rect x="352" y="352.6" fill="#FFD265" width="8.1" height="5.3"/>
		<g>
			<rect x="333.8" y="361.5" fill="#FFFFFF" width="31.9" height="0.6"/>
			<ellipse fill="#FFFFFF" cx="336.4" cy="362.1" rx="2.6" ry="0.6"/>
			<ellipse fill="#FFFFFF" cx="340.6" cy="362.2" rx="2.6" ry="0.6"/>
			<ellipse fill="#FFFFFF" cx="345.1" cy="362.2" rx="2.6" ry="0.6"/>
			<ellipse fill="#FFFFFF" cx="349.7" cy="362.2" rx="2.6" ry="0.6"/>
			<ellipse fill="#FFFFFF" cx="354.2" cy="362.2" rx="2.6" ry="0.6"/>
			<ellipse fill="#FFFFFF" cx="358.7" cy="362.2" rx="2.6" ry="0.6"/>
			<ellipse fill="#FFFFFF" cx="363.2" cy="362.2" rx="2.6" ry="0.6"/>
		</g>
	</g>
	<ellipse fill="#FFFFFF" cx="340.1" cy="370.6" rx="2.8" ry="2.9"/>
	<ellipse fill="#FFFFFF" cx="360" cy="370.6" rx="2.8" ry="2.9"/>
</g>
<rect x="390.6" y="359.9" fill="none" width="71.6" height="5.7"/>
<text transform="matrix(1 0 0 1 403.2488 365.2853)" fill="#EA6E2F" font-family="'OpenSans'" font-size="7.1207">Puppy Parade</text>
<rect x="387.3" y="372" fill="none" width="71.6" height="15.7"/>
<text transform="matrix(1 0 0 1 403.2332 377.3907)" fill="#EA6E2F" font-family="'OpenSans'" font-size="7.1207">Cool Kittens</text>
<line fill="none" stroke="#EA6E2F" stroke-width="0.4984" stroke-miterlimit="10" x1="403.6" y1="366.3" x2="449" y2="366.3"/>
<line fill="none" stroke="#EA6E2F" stroke-width="0.4984" stroke-miterlimit="10" x1="403.6" y1="378.9" x2="443.6" y2="378.9"/>
<g>
	
		<line fill="none" stroke="#6B6C24" stroke-linecap="round" stroke-linejoin="round" stroke-miterlimit="10" x1="104.8" y1="42.8" x2="104.8" y2="435.7"/>
	
		<line fill="none" stroke="#6B6C24" stroke-linecap="round" stroke-linejoin="round" stroke-miterlimit="10" x1="104.8" y1="435.7" x2="130.3" y2="435.7"/>
	
		<line fill="none" stroke="#6B6C24" stroke-linecap="round" stroke-linejoin="round" stroke-miterlimit="10" x1="104.5" y1="227.4" x2="62" y2="227.4"/>
	
		<line fill="none" stroke="#6B6C24" stroke-linecap="round" stroke-linejoin="round" stroke-miterlimit="10" x1="104.8" y1="42.8" x2="130.3" y2="42.8"/>
	<path fill="#FFFFFF" stroke="#6B6C24" stroke-miterlimit="10" d="M81.6,242h-45c-2.8,0-5-2.2-5-5v-19.8c0-2.8,2.2-5,5-5h45
		c2.8,0,5,2.2,5,5V237C86.6,239.7,84.4,242,81.6,242z"/>
	<rect x="41.9" y="220.1" fill="none" width="37.5" height="16.5"/>
	<text transform="matrix(1 0 0 1 41.8782 231.0927)" fill="#6B6C24" font-family="'OpenSans'" font-size="14.4297">body</text>
</g>
<circle fill="#FFC122" cx="396.3" cy="238.2" r="1.1"/>
<circle fill="#FFC122" cx="396.3" cy="295.5" r="1.1"/>
<circle fill="#FFC122" cx="396.3" cy="307.7" r="1.1"/>
<circle fill="#FFC122" cx="396.3" cy="363.8" r="1.1"/>
<circle fill="#FFC122" cx="396.3" cy="375.4" r="1.1"/>
<g>
	
		<line fill="none" stroke="#EA6E2F" stroke-linecap="round" stroke-linejoin="round" stroke-miterlimit="10" x1="292" y1="192" x2="292" y2="251.4"/>
	
		<line fill="none" stroke="#EA6E2F" stroke-linecap="round" stroke-linejoin="round" stroke-miterlimit="10" x1="292" y1="251.4" x2="304.2" y2="251.4"/>
	
		<line fill="none" stroke="#EA6E2F" stroke-linecap="round" stroke-linejoin="round" stroke-miterlimit="10" x1="292" y1="221.7" x2="271.3" y2="221.7"/>
	
		<line fill="none" stroke="#EA6E2F" stroke-linecap="round" stroke-linejoin="round" stroke-miterlimit="10" x1="292" y1="192" x2="304.2" y2="192"/>
</g>
<path fill="#FFFFFF" stroke="#EA6E2F" stroke-miterlimit="10" d="M276.7,232h-43.4c-2.8,0-5-2.2-5-5v-9.9c0-2.8,2.2-5,5-5h43.4
	c2.8,0,5,2.2,5,5v9.9C281.7,229.8,279.4,232,276.7,232z"/>
<rect x="236.3" y="217.7" fill="none" width="48.9" height="16.6"/>
<text transform="matrix(1 0 0 1 236.2971 226.3134)" fill="#EA6E2F" font-family="'OpenSans'" font-size="11.3101">section</text>
<g>
	
		<line fill="none" stroke="#FF5774" stroke-linecap="round" stroke-linejoin="round" stroke-miterlimit="10" x1="211.6" y1="181.8" x2="211.6" y2="401.7"/>
	
		<line fill="none" stroke="#FF5774" stroke-linecap="round" stroke-linejoin="round" stroke-miterlimit="10" x1="211.6" y1="401.7" x2="237.1" y2="401.7"/>
	
		<line fill="none" stroke="#FF5774" stroke-linecap="round" stroke-linejoin="round" stroke-miterlimit="10" x1="211.6" y1="290.1" x2="154.2" y2="290.1"/>
	
		<line fill="none" stroke="#FF5774" stroke-linecap="round" stroke-linejoin="round" stroke-miterlimit="10" x1="211.6" y1="181.8" x2="237.1" y2="181.8"/>
</g>
<path fill="#FFFFFF" stroke="#FF5774" stroke-miterlimit="10" d="M183.9,304h-59.3c-2.8,0-5-2.2-5-5v-18c0-2.8,2.2-5,5-5h59.3
	c2.8,0,5,2.2,5,5v18C188.9,301.7,186.7,304,183.9,304z"/>
<rect x="136.8" y="282.9" fill="none" width="42.9" height="16.1"/>
<text transform="matrix(1 0 0 1 136.7856 294.2653)" fill="#FF5774" font-family="'OpenSans'" font-size="15">main</text>
<g>
	
		<line fill="none" stroke="#EA6E2F" stroke-linecap="round" stroke-linejoin="round" stroke-miterlimit="10" x1="292" y1="262.9" x2="292" y2="322.3"/>
	
		<line fill="none" stroke="#EA6E2F" stroke-linecap="round" stroke-linejoin="round" stroke-miterlimit="10" x1="292" y1="322.3" x2="304.2" y2="322.3"/>
	
		<line fill="none" stroke="#EA6E2F" stroke-linecap="round" stroke-linejoin="round" stroke-miterlimit="10" x1="292" y1="292.7" x2="271.3" y2="292.7"/>
	
		<line fill="none" stroke="#EA6E2F" stroke-linecap="round" stroke-linejoin="round" stroke-miterlimit="10" x1="292" y1="262.9" x2="304.2" y2="262.9"/>
</g>
<path fill="#FFFFFF" stroke="#EA6E2F" stroke-miterlimit="10" d="M276.7,303h-43.4c-2.8,0-5-2.2-5-5v-9.9c0-2.8,2.2-5,5-5h43.4
	c2.8,0,5,2.2,5,5v9.9C281.7,300.7,279.4,303,276.7,303z"/>
<rect x="236.3" y="288.7" fill="none" width="48.9" height="16.6"/>
<text transform="matrix(1 0 0 1 236.2971 297.2666)" fill="#EA6E2F" font-family="'OpenSans'" font-size="11.3101">section</text>
<g>
	
		<line fill="none" stroke="#EA6E2F" stroke-linecap="round" stroke-linejoin="round" stroke-miterlimit="10" x1="292" y1="331.8" x2="292" y2="391.2"/>
	
		<line fill="none" stroke="#EA6E2F" stroke-linecap="round" stroke-linejoin="round" stroke-miterlimit="10" x1="292" y1="391.2" x2="304.2" y2="391.2"/>
	
		<line fill="none" stroke="#EA6E2F" stroke-linecap="round" stroke-linejoin="round" stroke-miterlimit="10" x1="292" y1="361.6" x2="271.3" y2="361.6"/>
	
		<line fill="none" stroke="#EA6E2F" stroke-linecap="round" stroke-linejoin="round" stroke-miterlimit="10" x1="292" y1="331.8" x2="304.2" y2="331.8"/>
</g>
<path fill="#FFFFFF" stroke="#EA6E2F" stroke-miterlimit="10" d="M276.7,371.9h-43.4c-2.8,0-5-2.2-5-5V357c0-2.8,2.2-5,5-5h43.4
	c2.8,0,5,2.2,5,5v9.9C281.7,369.6,279.4,371.9,276.7,371.9z"/>
<rect x="236.3" y="357.6" fill="none" width="48.9" height="16.6"/>
<text transform="matrix(1 0 0 1 236.2971 366.1709)" fill="#EA6E2F" font-family="'OpenSans'" font-size="11.3101">section</text>
<rect x="313.6" y="188.9" fill="none" stroke="#FFAAA8" stroke-width="1.028" stroke-miterlimit="10" stroke-dasharray="7.8942,7.8942" width="150.3" height="64.5"/>
<rect x="318.3" y="192.9" fill="none" stroke="#82CACD" stroke-width="0.6318" stroke-miterlimit="10" stroke-dasharray="4.8521,4.8521" width="63.8" height="57.4"/>
<rect x="387.1" y="192.6" fill="none" stroke="#82CACD" stroke-width="0.6702" stroke-miterlimit="10" stroke-dasharray="5.1469,5.1469" width="71.8" height="57.4"/>
</svg>
