<?xml version="1.0" encoding="utf-8"?>
<!-- Generator: Adobe Illustrator 18.1.1, SVG Export Plug-In . SVG Version: 6.00 Build 0)  -->
<svg version="1.1" id="Layer_1" xmlns="http://www.w3.org/2000/svg" xmlns:xlink="http://www.w3.org/1999/xlink" x="0px" y="0px"
	 viewBox="0 0 600 450" enable-background="new 0 0 600 450" xml:space="preserve">
<g>
	<g>
		<path fill="#C9C9C9" d="M567.3,45c0,2.3-1.3,4.1-3,4.1H234c-1.7,0-3-1.8-3-4.1V18.4c0-2.3,1.3-4.1,3-4.1h330.2c1.7,0,3,1.8,3,4.1
			V45z"/>
		<g>
			<circle fill="#9D9E9D" cx="241.9" cy="24.2" r="4.6"/>
			<circle fill="#9D9E9D" cx="254.7" cy="24.2" r="4.6"/>
			<circle fill="#9D9E9D" cx="267.4" cy="24.2" r="4.6"/>
		</g>
	</g>
	<path fill="#FAF8DA" stroke="#FAF8DA" stroke-width="0.356" stroke-miterlimit="10" d="M567.3,32.9v388.1c0,1.3-0.4,2.4-1,2.4H232
		c-0.5,0-1-1.1-1-2.4V34.3"/>
	<rect x="261" y="51.7" fill="none" width="276.4" height="39.5"/>
	<text transform="matrix(1 0 0 1 275.2954 67.4068)" fill="#205D76" font-family="'OpenSans-Bold'" font-size="20.65">Welcome To Tuts+ Town</text>
	<path fill="#FFC122" d="M564.3,426H234c-1.6,0-3-1.4-3-3v-19.6c0-1.6,1.4-3,3-3h330.2c1.7,0,3,1.4,3,3V423
		C567.3,424.6,565.9,426,564.3,426z"/>
	<rect x="231" y="394.6" fill="#FAF8DA" width="336.2" height="13"/>
	<g>
		<path fill="#FFFFFF" d="M336.7,418.7c-0.2,0.1-0.7,0.2-1.3,0.2c-1.4,0-2.4-0.9-2.4-2.4c0-1.5,1-2.5,2.5-2.5c0.6,0,1,0.1,1.1,0.2
			l-0.1,0.5c-0.2-0.1-0.6-0.2-1-0.2c-1.1,0-1.9,0.7-1.9,2c0,1.2,0.7,1.9,1.8,1.9c0.4,0,0.8-0.1,1-0.2L336.7,418.7z"/>
		<path fill="#FFFFFF" d="M337.4,416.5c0-0.4,0-0.8,0-1.1h0.5l0,0.7h0c0.2-0.5,0.5-0.8,1-0.8c0.1,0,0.1,0,0.2,0v0.6
			c-0.1,0-0.1,0-0.2,0c-0.4,0-0.8,0.3-0.8,0.8c0,0.1,0,0.2,0,0.3v1.8h-0.6V416.5z"/>
		<path fill="#FFFFFF" d="M340,417.2c0,0.8,0.6,1.2,1.2,1.2c0.4,0,0.7-0.1,1-0.2l0.1,0.4c-0.2,0.1-0.6,0.2-1.1,0.2
			c-1.1,0-1.7-0.7-1.7-1.7c0-1,0.6-1.9,1.6-1.9c1.1,0,1.4,1,1.4,1.6c0,0.1,0,0.2,0,0.3H340z M341.9,416.8c0-0.4-0.2-1-0.9-1
			c-0.6,0-0.9,0.6-1,1H341.9z"/>
		<path fill="#FFFFFF" d="M345.2,418.8l-0.1-0.4h0c-0.2,0.3-0.6,0.5-1.1,0.5c-0.7,0-1.1-0.5-1.1-1c0-0.8,0.7-1.3,2.1-1.3v-0.1
			c0-0.3-0.1-0.8-0.8-0.8c-0.3,0-0.7,0.1-0.9,0.3l-0.1-0.4c0.3-0.2,0.7-0.3,1.1-0.3c1.1,0,1.3,0.7,1.3,1.4v1.3c0,0.3,0,0.6,0.1,0.8
			H345.2z M345.1,417.1c-0.7,0-1.5,0.1-1.5,0.8c0,0.4,0.3,0.6,0.6,0.6c0.4,0,0.7-0.3,0.8-0.6c0-0.1,0-0.1,0-0.2V417.1z"/>
		<path fill="#FFFFFF" d="M347.4,414.4v1h0.9v0.5h-0.9v1.9c0,0.4,0.1,0.7,0.5,0.7c0.2,0,0.3,0,0.4,0l0,0.5c-0.1,0.1-0.3,0.1-0.6,0.1
			c-0.3,0-0.5-0.1-0.7-0.3c-0.2-0.2-0.2-0.5-0.2-0.9v-1.9h-0.5v-0.5h0.5v-0.8L347.4,414.4z"/>
		<path fill="#FFFFFF" d="M349.3,417.2c0,0.8,0.6,1.2,1.2,1.2c0.4,0,0.7-0.1,1-0.2l0.1,0.4c-0.2,0.1-0.6,0.2-1.1,0.2
			c-1.1,0-1.7-0.7-1.7-1.7c0-1,0.6-1.9,1.6-1.9c1.1,0,1.4,1,1.4,1.6c0,0.1,0,0.2,0,0.3H349.3z M351.2,416.8c0-0.4-0.2-1-0.9-1
			c-0.6,0-0.9,0.6-1,1H351.2z"/>
		<path fill="#FFFFFF" d="M355.5,413.8v4.2c0,0.3,0,0.7,0,0.9H355l0-0.6h0c-0.2,0.4-0.6,0.7-1.2,0.7c-0.8,0-1.5-0.7-1.5-1.8
			c0-1.1,0.7-1.9,1.5-1.9c0.5,0,0.9,0.2,1,0.5h0v-2.1H355.5z M354.9,416.8c0-0.1,0-0.2,0-0.3c-0.1-0.4-0.4-0.7-0.9-0.7
			c-0.6,0-1,0.6-1,1.3c0,0.7,0.3,1.3,1,1.3c0.4,0,0.8-0.3,0.9-0.7c0-0.1,0-0.2,0-0.3V416.8z"/>
		<path fill="#FFFFFF" d="M358.3,415.4l0.5,1.8c0.1,0.4,0.2,0.7,0.3,1.1h0c0.1-0.3,0.2-0.7,0.3-1.1l0.6-1.8h0.5l0.5,1.7
			c0.1,0.4,0.2,0.8,0.3,1.1h0c0.1-0.3,0.1-0.7,0.3-1.1l0.5-1.7h0.6l-1.1,3.4H361l-0.5-1.6c-0.1-0.4-0.2-0.7-0.3-1.1h0
			c-0.1,0.4-0.2,0.8-0.3,1.1l-0.6,1.6h-0.6l-1-3.4H358.3z"/>
		<path fill="#FFFFFF" d="M364,414.4c0,0.2-0.1,0.4-0.4,0.4c-0.2,0-0.4-0.2-0.4-0.4c0-0.2,0.2-0.4,0.4-0.4
			C363.8,414,364,414.2,364,414.4z M363.3,418.8v-3.4h0.6v3.4H363.3z"/>
		<path fill="#FFFFFF" d="M365.7,414.4v1h0.9v0.5h-0.9v1.9c0,0.4,0.1,0.7,0.5,0.7c0.2,0,0.3,0,0.4,0l0,0.5c-0.1,0.1-0.3,0.1-0.6,0.1
			c-0.3,0-0.5-0.1-0.7-0.3c-0.2-0.2-0.2-0.5-0.2-0.9v-1.9h-0.5v-0.5h0.5v-0.8L365.7,414.4z"/>
		<path fill="#FFFFFF" d="M367.3,413.8h0.6v2.1h0c0.1-0.2,0.3-0.3,0.4-0.4c0.2-0.1,0.4-0.2,0.6-0.2c0.5,0,1.2,0.3,1.2,1.5v2h-0.6v-2
			c0-0.6-0.2-1-0.8-1c-0.4,0-0.7,0.3-0.8,0.6c0,0.1,0,0.2,0,0.3v2.1h-0.6V413.8z"/>
		<path fill="#FFFFFF" d="M373.1,417.2c0,0.8,0.6,1.2,1.2,1.2c0.4,0,0.7-0.1,1-0.2l0.1,0.4c-0.2,0.1-0.6,0.2-1.1,0.2
			c-1.1,0-1.7-0.7-1.7-1.7c0-1,0.6-1.9,1.6-1.9c1.1,0,1.4,1,1.4,1.6c0,0.1,0,0.2,0,0.3H373.1z M375,416.8c0-0.4-0.2-1-0.9-1
			c-0.6,0-0.9,0.6-1,1H375z"/>
		<path fill="#FFFFFF" d="M376.4,416.3c0-0.4,0-0.6,0-0.9h0.6l0,0.6h0c0.2-0.3,0.6-0.6,1.1-0.6c0.5,0,1.2,0.3,1.2,1.5v2.1h-0.6v-2
			c0-0.6-0.2-1-0.8-1c-0.4,0-0.7,0.3-0.8,0.6c0,0.1,0,0.2,0,0.3v2.1h-0.6V416.3z"/>
		<path fill="#FFFFFF" d="M381,414.4v1h0.9v0.5H381v1.9c0,0.4,0.1,0.7,0.5,0.7c0.2,0,0.3,0,0.4,0l0,0.5c-0.1,0.1-0.3,0.1-0.6,0.1
			c-0.3,0-0.5-0.1-0.7-0.3c-0.2-0.2-0.2-0.5-0.2-0.9v-1.9h-0.5v-0.5h0.5v-0.8L381,414.4z"/>
		<path fill="#FFFFFF" d="M382.6,413.8h0.6v2.1h0c0.1-0.2,0.3-0.3,0.4-0.4c0.2-0.1,0.4-0.2,0.6-0.2c0.5,0,1.2,0.3,1.2,1.5v2h-0.6v-2
			c0-0.6-0.2-1-0.8-1c-0.4,0-0.7,0.3-0.8,0.6c0,0.1,0,0.2,0,0.3v2.1h-0.6V413.8z"/>
		<path fill="#FFFFFF" d="M389.5,417.9c0,0.4,0,0.7,0,0.9h-0.6l0-0.6h0c-0.2,0.3-0.5,0.6-1.1,0.6c-0.5,0-1.2-0.3-1.2-1.5v-2h0.6v1.9
			c0,0.7,0.2,1.1,0.8,1.1c0.4,0,0.7-0.3,0.8-0.6c0-0.1,0.1-0.2,0.1-0.3v-2.1h0.6V417.9z"/>
		<path fill="#FFFFFF" d="M390.4,418.2c0.2,0.1,0.5,0.2,0.8,0.2c0.5,0,0.7-0.2,0.7-0.5c0-0.3-0.2-0.5-0.6-0.6
			c-0.6-0.2-0.9-0.6-0.9-1c0-0.6,0.4-1,1.2-1c0.3,0,0.7,0.1,0.8,0.2l-0.2,0.5c-0.1-0.1-0.4-0.2-0.7-0.2c-0.4,0-0.6,0.2-0.6,0.5
			c0,0.3,0.2,0.4,0.7,0.6c0.6,0.2,0.9,0.5,0.9,1c0,0.6-0.5,1-1.3,1c-0.4,0-0.7-0.1-1-0.2L390.4,418.2z"/>
		<path fill="#FFFFFF" d="M394,414.4c0,0.2-0.1,0.4-0.4,0.4c-0.2,0-0.4-0.2-0.4-0.4c0-0.2,0.2-0.4,0.4-0.4
			C393.9,414,394,414.2,394,414.4z M393.3,418.8v-3.4h0.6v3.4H393.3z"/>
		<path fill="#FFFFFF" d="M396.9,418.8l-0.1-0.4h0c-0.2,0.3-0.6,0.5-1.1,0.5c-0.7,0-1.1-0.5-1.1-1c0-0.8,0.7-1.3,2.1-1.3v-0.1
			c0-0.3-0.1-0.8-0.8-0.8c-0.3,0-0.7,0.1-0.9,0.3l-0.1-0.4c0.3-0.2,0.7-0.3,1.1-0.3c1.1,0,1.3,0.7,1.3,1.4v1.3c0,0.3,0,0.6,0.1,0.8
			H396.9z M396.8,417.1c-0.7,0-1.5,0.1-1.5,0.8c0,0.4,0.3,0.6,0.6,0.6c0.4,0,0.7-0.3,0.8-0.6c0-0.1,0-0.1,0-0.2V417.1z"/>
		<path fill="#FFFFFF" d="M398.3,418.2c0.2,0.1,0.5,0.2,0.8,0.2c0.5,0,0.7-0.2,0.7-0.5c0-0.3-0.2-0.5-0.6-0.6
			c-0.6-0.2-0.9-0.6-0.9-1c0-0.6,0.4-1,1.2-1c0.3,0,0.7,0.1,0.8,0.2l-0.2,0.5c-0.1-0.1-0.4-0.2-0.7-0.2c-0.4,0-0.6,0.2-0.6,0.5
			c0,0.3,0.2,0.4,0.7,0.6c0.6,0.2,0.9,0.5,0.9,1c0,0.6-0.5,1-1.3,1c-0.4,0-0.7-0.1-1-0.2L398.3,418.2z"/>
		<path fill="#FFFFFF" d="M401.2,416.3c0-0.4,0-0.6,0-0.9h0.5l0,0.6h0c0.2-0.3,0.5-0.6,1.1-0.6c0.5,0,0.8,0.3,1,0.7h0
			c0.1-0.2,0.2-0.3,0.4-0.4c0.2-0.2,0.4-0.2,0.8-0.2c0.5,0,1.1,0.3,1.1,1.5v2h-0.6v-1.9c0-0.7-0.2-1.1-0.7-1.1
			c-0.4,0-0.6,0.3-0.7,0.6c0,0.1-0.1,0.2-0.1,0.3v2.1h-0.6v-2.1c0-0.5-0.2-0.9-0.7-0.9c-0.4,0-0.7,0.3-0.8,0.6
			c0,0.1-0.1,0.2-0.1,0.3v2.1h-0.6V416.3z"/>
		<path fill="#FFFFFF" d="M408.7,418.8c0-0.2,0-0.6,0-0.9v-4.2h0.6v2.2h0c0.2-0.4,0.6-0.6,1.2-0.6c0.9,0,1.5,0.7,1.5,1.8
			c0,1.2-0.8,1.8-1.5,1.8c-0.5,0-0.9-0.2-1.2-0.6h0l0,0.6H408.7z M409.3,417.5c0,0.1,0,0.2,0,0.2c0.1,0.4,0.5,0.7,0.9,0.7
			c0.7,0,1-0.5,1-1.3c0-0.7-0.4-1.3-1-1.3c-0.4,0-0.8,0.3-1,0.8c0,0.1,0,0.2,0,0.3V417.5z"/>
		<path fill="#FFFFFF" d="M412.9,415.4l0.8,2c0.1,0.2,0.2,0.5,0.2,0.7h0c0.1-0.2,0.1-0.5,0.2-0.7l0.7-2h0.7l-0.9,2.5
			c-0.4,1.2-0.8,1.8-1.2,2.2c-0.3,0.3-0.6,0.4-0.8,0.4l-0.2-0.5c0.2,0,0.4-0.1,0.5-0.3c0.2-0.1,0.4-0.4,0.5-0.7c0-0.1,0-0.1,0-0.1
			s0-0.1,0-0.2l-1.3-3.2H412.9z"/>
		<path fill="#FFFFFF" d="M420,418.7c-0.2,0.1-0.5,0.2-1,0.2c-1,0-1.7-0.7-1.7-1.8c0-1.1,0.7-1.8,1.9-1.8c0.4,0,0.7,0.1,0.9,0.2
			l-0.1,0.5c-0.1-0.1-0.4-0.2-0.7-0.2c-0.8,0-1.2,0.6-1.2,1.3c0,0.8,0.5,1.3,1.2,1.3c0.4,0,0.6-0.1,0.8-0.2L420,418.7z"/>
		<path fill="#FFFFFF" d="M422.7,418.8l-0.1-0.4h0c-0.2,0.3-0.6,0.5-1.1,0.5c-0.7,0-1.1-0.5-1.1-1c0-0.8,0.7-1.3,2.1-1.3v-0.1
			c0-0.3-0.1-0.8-0.8-0.8c-0.3,0-0.7,0.1-0.9,0.3l-0.1-0.4c0.3-0.2,0.7-0.3,1.1-0.3c1.1,0,1.3,0.7,1.3,1.4v1.3c0,0.3,0,0.6,0.1,0.8
			H422.7z M422.6,417.1c-0.7,0-1.5,0.1-1.5,0.8c0,0.4,0.3,0.6,0.6,0.6c0.4,0,0.7-0.3,0.8-0.6c0-0.1,0-0.1,0-0.2V417.1z"/>
		<path fill="#FFFFFF" d="M424.2,416.5c0-0.4,0-0.8,0-1.1h0.5l0,0.7h0c0.2-0.5,0.5-0.8,1-0.8c0.1,0,0.1,0,0.2,0v0.6
			c-0.1,0-0.1,0-0.2,0c-0.4,0-0.8,0.3-0.8,0.8c0,0.1,0,0.2,0,0.3v1.8h-0.6V416.5z"/>
		<path fill="#FFFFFF" d="M427.2,414.4c0,0.2-0.1,0.4-0.4,0.4c-0.2,0-0.4-0.2-0.4-0.4c0-0.2,0.2-0.4,0.4-0.4
			C427.1,414,427.2,414.2,427.2,414.4z M426.5,418.8v-3.4h0.6v3.4H426.5z"/>
		<path fill="#FFFFFF" d="M428.2,416.3c0-0.4,0-0.6,0-0.9h0.6l0,0.6h0c0.2-0.3,0.6-0.6,1.1-0.6c0.5,0,1.2,0.3,1.2,1.5v2.1h-0.6v-2
			c0-0.6-0.2-1-0.8-1c-0.4,0-0.7,0.3-0.8,0.6c0,0.1,0,0.2,0,0.3v2.1h-0.6V416.3z"/>
		<path fill="#FFFFFF" d="M435.1,415.4c0,0.2,0,0.5,0,0.9v2c0,0.8-0.2,1.3-0.5,1.6c-0.3,0.3-0.8,0.4-1.3,0.4c-0.4,0-0.9-0.1-1.1-0.3
			l0.2-0.5c0.2,0.1,0.6,0.3,1,0.3c0.6,0,1.1-0.3,1.1-1.2v-0.4h0c-0.2,0.3-0.6,0.6-1.1,0.6c-0.9,0-1.5-0.7-1.5-1.7
			c0-1.2,0.8-1.8,1.6-1.8c0.6,0,0.9,0.3,1.1,0.6h0l0-0.5H435.1z M434.5,416.7c0-0.1,0-0.2,0-0.3c-0.1-0.4-0.4-0.7-0.9-0.7
			c-0.6,0-1,0.5-1,1.3c0,0.7,0.3,1.2,1,1.2c0.4,0,0.7-0.2,0.9-0.6c0-0.1,0.1-0.2,0.1-0.3V416.7z"/>
		<path fill="#FFFFFF" d="M437.6,416.5c0-0.4,0-0.8,0-1.1h0.5l0,0.7h0c0.2-0.5,0.5-0.8,1-0.8c0.1,0,0.1,0,0.2,0v0.6
			c-0.1,0-0.1,0-0.2,0c-0.4,0-0.8,0.3-0.8,0.8c0,0.1,0,0.2,0,0.3v1.8h-0.6V416.5z"/>
		<path fill="#FFFFFF" d="M440.3,417.2c0,0.8,0.6,1.2,1.2,1.2c0.4,0,0.7-0.1,1-0.2l0.1,0.4c-0.2,0.1-0.6,0.2-1.1,0.2
			c-1.1,0-1.7-0.7-1.7-1.7c0-1,0.6-1.9,1.6-1.9c1.1,0,1.4,1,1.4,1.6c0,0.1,0,0.2,0,0.3H440.3z M442.1,416.8c0-0.4-0.2-1-0.9-1
			c-0.6,0-0.9,0.6-1,1H442.1z"/>
		<path fill="#FFFFFF" d="M443.4,418.2c0.2,0.1,0.5,0.2,0.8,0.2c0.5,0,0.7-0.2,0.7-0.5c0-0.3-0.2-0.5-0.6-0.6
			c-0.6-0.2-0.9-0.6-0.9-1c0-0.6,0.4-1,1.2-1c0.3,0,0.7,0.1,0.8,0.2l-0.2,0.5c-0.1-0.1-0.4-0.2-0.7-0.2c-0.4,0-0.6,0.2-0.6,0.5
			c0,0.3,0.2,0.4,0.7,0.6c0.6,0.2,0.9,0.5,0.9,1c0,0.6-0.5,1-1.3,1c-0.4,0-0.7-0.1-1-0.2L443.4,418.2z"/>
		<path fill="#FFFFFF" d="M447,414.4c0,0.2-0.1,0.4-0.4,0.4c-0.2,0-0.4-0.2-0.4-0.4c0-0.2,0.2-0.4,0.4-0.4
			C446.8,414,447,414.2,447,414.4z M446.3,418.8v-3.4h0.6v3.4H446.3z"/>
		<path fill="#FFFFFF" d="M450.9,413.8v4.2c0,0.3,0,0.7,0,0.9h-0.6l0-0.6h0c-0.2,0.4-0.6,0.7-1.2,0.7c-0.8,0-1.5-0.7-1.5-1.8
			c0-1.1,0.7-1.9,1.5-1.9c0.5,0,0.9,0.2,1,0.5h0v-2.1H450.9z M450.3,416.8c0-0.1,0-0.2,0-0.3c-0.1-0.4-0.4-0.7-0.9-0.7
			c-0.6,0-1,0.6-1,1.3c0,0.7,0.3,1.3,1,1.3c0.4,0,0.8-0.3,0.9-0.7c0-0.1,0-0.2,0-0.3V416.8z"/>
		<path fill="#FFFFFF" d="M452.3,417.2c0,0.8,0.6,1.2,1.2,1.2c0.4,0,0.7-0.1,1-0.2l0.1,0.4c-0.2,0.1-0.6,0.2-1.1,0.2
			c-1.1,0-1.7-0.7-1.7-1.7c0-1,0.6-1.9,1.6-1.9c1.1,0,1.4,1,1.4,1.6c0,0.1,0,0.2,0,0.3H452.3z M454.2,416.8c0-0.4-0.2-1-0.9-1
			c-0.6,0-0.9,0.6-1,1H454.2z"/>
		<path fill="#FFFFFF" d="M455.5,416.3c0-0.4,0-0.6,0-0.9h0.6l0,0.6h0c0.2-0.3,0.6-0.6,1.1-0.6c0.5,0,1.2,0.3,1.2,1.5v2.1h-0.6v-2
			c0-0.6-0.2-1-0.8-1c-0.4,0-0.7,0.3-0.8,0.6c0,0.1,0,0.2,0,0.3v2.1h-0.6V416.3z"/>
		<path fill="#FFFFFF" d="M460.2,414.4v1h0.9v0.5h-0.9v1.9c0,0.4,0.1,0.7,0.5,0.7c0.2,0,0.3,0,0.4,0l0,0.5c-0.1,0.1-0.3,0.1-0.6,0.1
			c-0.3,0-0.5-0.1-0.7-0.3c-0.2-0.2-0.2-0.5-0.2-0.9v-1.9h-0.5v-0.5h0.5v-0.8L460.2,414.4z"/>
		<path fill="#FFFFFF" d="M461.7,418.2c0.2,0.1,0.5,0.2,0.8,0.2c0.5,0,0.7-0.2,0.7-0.5c0-0.3-0.2-0.5-0.6-0.6
			c-0.6-0.2-0.9-0.6-0.9-1c0-0.6,0.4-1,1.2-1c0.3,0,0.7,0.1,0.8,0.2l-0.2,0.5c-0.1-0.1-0.4-0.2-0.7-0.2c-0.4,0-0.6,0.2-0.6,0.5
			c0,0.3,0.2,0.4,0.7,0.6c0.6,0.2,0.9,0.5,0.9,1c0,0.6-0.5,1-1.3,1c-0.4,0-0.7-0.1-1-0.2L461.7,418.2z"/>
		<path fill="#FFFFFF" d="M464.4,418.5c0-0.3,0.2-0.4,0.4-0.4c0.2,0,0.4,0.2,0.4,0.4c0,0.3-0.2,0.4-0.4,0.4
			C464.6,418.9,464.4,418.7,464.4,418.5z"/>
	</g>
	<g>
		<g>
			<g>
				<path fill="#FFC122" d="M415.7,84.8c18,0,36.1,0,54.1,0c9.4,0,18.8,0,28.3,0c0.9,0,1.8,0,2.7,0c1,0-0.2-1-0.1-0.3
					c0.1,2.5,0,4.9,0,7.4c0,22.4,0,44.7,0,67.1c0,3.3-0.3,6.7,0,9.9c0,0.5,0.1,1.2,0,1.7c0.1-0.5,1.1-0.6,0.2-0.6
					c-4.1-0.1-8.3,0-12.4,0c-44.4,0-88.9,0-133.3,0c-17.2,0-34.4,0-51.7,0c-1.5,0-3.7-0.4-5.2,0c-1.6,0.4-0.5,0.3-0.5,0.1
					c0.6-7.5,0-15.3,0-22.8c0-12.3,0-24.6,0-36.8c0-5.2,0-10.4,0-15.6c0-2.8,0.6-6.6,0-9.3c-0.1-0.5,0.3-1.6-0.3-1
					c-0.7,0.7,1.2,0.3,1.8,0.3c4.3,0,8.6,0,12.9,0c11.6,0,23.2,0,34.8,0c2.4,0,4.7,0,7.1,0c0.9,0,0.9-1.4,0-1.4c-19,0-38,0-57,0
					c-0.4,0-0.7,0.3-0.7,0.7c0,25.2,0,50.3,0,75.5c0,3.7,0,7.3,0,11c0,0.4,0.3,0.7,0.7,0.7c23.1,0,46.2,0,69.2,0
					c36.6,0,73.2,0,109.8,0c8.4,0,16.9,0,25.3,0c0.4,0,0.7-0.3,0.7-0.7c0-25.2,0-50.3,0-75.5c0-3.7,0-7.3,0-11
					c0-0.4-0.3-0.7-0.7-0.7c-25,0-49.9,0-74.9,0c-3.6,0-7.1,0-10.7,0C414.8,83.4,414.8,84.8,415.7,84.8L415.7,84.8z"/>
			</g>
		</g>
		<path fill="#FFFFFF" d="M446.1,111.4c0,0.7-0.2,1.4-0.5,2c-0.6,1-1.5,1.7-2.7,1.9c-0.2,0-0.3,0-0.5,0h-23.5c-0.1,0-0.2,0-0.4,0
			c-0.1,0-0.2,0-0.4,0c-2.2,0-4-1.8-4-4c0-2.2,1.8-4,4-4c0.2,0,0.4,0,0.6,0c-0.1-0.9-0.1-1.9,0.2-2.9c1-3.6,4.8-5.7,8.4-4.7
			c1.8,0.5,3.3,1.8,4.1,3.3c0.9-0.5,1.9-0.8,3-0.8c3.1,0,5.6,2.5,5.7,5.5c0.6-0.3,1.3-0.5,2-0.5
			C444.3,107.4,446.1,109.2,446.1,111.4z"/>
		<path fill="#FFFFFF" d="M493.7,91.3c0,0.7-0.2,1.4-0.5,2c-0.6,1-1.5,1.7-2.7,1.9c-0.2,0-0.3,0-0.5,0h-23.5c-0.1,0-0.2,0-0.4,0
			c-0.1,0-0.2,0-0.4,0c-2.2,0-4-1.8-4-4c0-2.2,1.8-4,4-4c0.2,0,0.4,0,0.6,0c-0.1-0.9-0.1-1.9,0.2-2.9c1-3.6,4.8-5.7,8.4-4.7
			c1.8,0.5,3.3,1.8,4.1,3.3c0.9-0.5,1.9-0.8,3-0.8c3.1,0,5.6,2.5,5.7,5.5c0.6-0.3,1.3-0.5,2-0.5C491.9,87.3,493.7,89.1,493.7,91.3z"
			/>
		<path fill="#FFFFFF" d="M373.1,101.3c0,0.7-0.2,1.4-0.5,2c-0.6,1-1.5,1.7-2.7,1.9c-0.2,0-0.3,0-0.5,0h-23.5c-0.1,0-0.2,0-0.4,0
			c-0.1,0-0.2,0-0.4,0c-2.2,0-4-1.8-4-4c0-2.2,1.8-4,4-4c0.2,0,0.4,0,0.6,0c-0.1-0.9-0.1-1.9,0.2-2.9c1-3.6,4.8-5.7,8.4-4.7
			c1.8,0.5,3.3,1.8,4.1,3.3c0.9-0.5,1.9-0.8,3-0.8c3.1,0,5.6,2.5,5.7,5.5c0.6-0.3,1.3-0.5,2-0.5C371.3,97.3,373.1,99.1,373.1,101.3z
			"/>
		<line fill="none" stroke="#FFC122" stroke-width="0.4071" stroke-miterlimit="10" x1="374.2" y1="163.8" x2="386.4" y2="163.8"/>
		<line fill="none" stroke="#FFC122" stroke-width="0.4071" stroke-miterlimit="10" x1="374.2" y1="164" x2="386.5" y2="164"/>
		<polyline fill="#FFC122" points="369.8,171.1 369.8,126.5 391,126.5 391,170.9 		"/>
		<rect x="380.5" y="89.2" fill="#62D4D4" width="15.4" height="5.3"/>
		<path fill="#205D76" d="M381.2,102.6c0,8.1-0.4,14.7-0.6,14.7c-0.2,0-0.6-6.6-0.6-14.7s0.4-14.7,0.6-14.7
			C380.8,87.9,381.2,94.5,381.2,102.6z"/>
		<circle fill="#205D76" cx="380.5" cy="88.1" r="0.7"/>
		<circle fill="#205D76" cx="380.5" cy="95.3" r="0.8"/>
		<polygon fill="#62D4D4" points="413.3,97.2 395.7,97.2 395.7,91.9 413.3,91.9 408.7,94.7 		"/>
		<rect x="383.5" y="90.1" fill="none" width="19.7" height="6.9"/>
		<text transform="matrix(1 0 0 1 383.4712 92.9322)" fill="#205D76" font-family="'OpenSans-Semibold'" font-size="3.7066">tuts</text>
		<rect x="398.1" y="92.7" fill="none" width="19.7" height="5.5"/>
		<text transform="matrix(1 0 0 1 398.0796 95.5147)" fill="#205D76" font-family="'OpenSans-Semibold'" font-size="3.7066">town</text>
		<g>
			<path fill="#205D76" stroke="#205D76" stroke-width="0.2074" stroke-miterlimit="10" d="M391.4,91.1v0.6h0.5v0.2h-0.5v0.6h-0.2
				v-0.6h-0.5v-0.2h0.5v-0.6H391.4z"/>
		</g>
		
			<ellipse fill="#205D76" stroke="#205D76" stroke-width="0.2074" stroke-miterlimit="10" cx="380.5" cy="105.3" rx="1.7" ry="0.5"/>
		<polygon fill="#205D76" stroke="#205D76" stroke-width="0.2074" stroke-miterlimit="10" points="380.6,105.3 386.8,115.9 
			392.9,126.6 380.6,126.6 368.3,126.6 374.4,115.9 		"/>
		<ellipse fill="#205D76" stroke="#205D76" stroke-width="0.2074" stroke-miterlimit="10" cx="380.5" cy="112.7" rx="5.6" ry="1"/>
		<path fill="#205D76" stroke="#205D76" stroke-width="0.2556" stroke-miterlimit="10" d="M394.2,125.7c0,1.8-6.1,1.6-13.7,1.6
			s-13.7,0.3-13.7-1.6s6.1-3.3,13.7-3.3S394.2,123.9,394.2,125.7z"/>
		<g>
			<path fill="#EA6E2F" d="M391,137.9L391,137.9c0,0,0,0.1,0,0.1c0,0.9-0.8,1.7-1.7,1.7c-0.6,0-1.2-0.3-1.5-0.9
				c-0.3,0.5-0.8,0.9-1.5,0.9c-0.7,0-1.2-0.4-1.5-0.9c-0.3,0.5-0.8,0.9-1.5,0.9c-0.7,0-1.2-0.4-1.5-0.9c-0.3,0.5-0.8,0.9-1.5,0.9
				c-0.7,0-1.2-0.4-1.5-0.9c-0.3,0.6-0.9,1-1.5,1c-0.6,0-1.2-0.3-1.5-0.9c-0.3,0.5-0.8,0.9-1.5,0.9c-0.6,0-1.1-0.3-1.4-0.8
				c-0.3,0.4-0.8,0.7-1.4,0.7c-0.9,0-1.7-0.8-1.7-1.7v-1.7H391V137.9z"/>
		</g>
		<rect x="374.3" y="144.6" fill="#FFFFFF" width="12.4" height="21"/>
		<polygon fill="#FF5774" points="387.9,146.9 373.1,146.9 374.4,144 386.6,144 		"/>
		<line fill="none" stroke="#FFC122" stroke-width="0.4071" stroke-miterlimit="10" x1="376.6" y1="158.5" x2="376.6" y2="166"/>
		<line fill="none" stroke="#FFC122" stroke-width="0.4071" stroke-miterlimit="10" x1="379.1" y1="158.6" x2="379.1" y2="166.1"/>
		<line fill="none" stroke="#FFC122" stroke-width="0.4071" stroke-miterlimit="10" x1="381.8" y1="158.5" x2="381.8" y2="166"/>
		<line fill="none" stroke="#FFC122" stroke-width="0.4071" stroke-miterlimit="10" x1="384.4" y1="158.5" x2="384.4" y2="166"/>
		<line fill="none" stroke="#FFC122" stroke-width="0.4071" stroke-miterlimit="10" x1="373.9" y1="163.7" x2="386.9" y2="163.7"/>
		<line fill="none" stroke="#FFC122" stroke-width="0.4071" stroke-miterlimit="10" x1="374" y1="160.4" x2="387.1" y2="160.4"/>
		<g>
			<path fill="#FFC122" d="M376.5,157.9c0.1-0.1,0.2-0.1,0.2,0c0.1,0.1,0.2,0.3,0.2,0.4c0.1,0.1,0,0.2-0.1,0.2s-0.3,0-0.5,0
				s-0.2-0.1-0.1-0.2C376.3,158.2,376.4,158,376.5,157.9z"/>
			<path fill="none" stroke="#FFC122" stroke-width="0.2516" stroke-miterlimit="10" d="M376.5,157.9c0.1-0.1,0.2-0.1,0.2,0
				c0.1,0.1,0.2,0.3,0.2,0.4c0.1,0.1,0,0.2-0.1,0.2s-0.3,0-0.5,0s-0.2-0.1-0.1-0.2C376.3,158.2,376.4,158,376.5,157.9z"/>
		</g>
		<g>
			<path fill="#FFC122" d="M381.7,157.9c0.1-0.1,0.2-0.1,0.2,0c0.1,0.1,0.2,0.3,0.2,0.4c0.1,0.1,0,0.2-0.1,0.2s-0.3,0-0.5,0
				c-0.1,0-0.2-0.1-0.1-0.2C381.5,158.2,381.6,158,381.7,157.9z"/>
			<path fill="none" stroke="#FFC122" stroke-width="0.2516" stroke-miterlimit="10" d="M381.7,157.9c0.1-0.1,0.2-0.1,0.2,0
				c0.1,0.1,0.2,0.3,0.2,0.4c0.1,0.1,0,0.2-0.1,0.2s-0.3,0-0.5,0c-0.1,0-0.2-0.1-0.1-0.2C381.5,158.2,381.6,158,381.7,157.9z"/>
		</g>
		<g>
			<path fill="#FFC122" d="M379,157.9c0.1-0.1,0.2-0.1,0.2,0c0.1,0.1,0.2,0.3,0.2,0.4c0.1,0.1,0,0.2-0.1,0.2s-0.3,0-0.5,0
				c-0.1,0-0.2-0.1-0.1-0.2C378.8,158.2,378.9,158,379,157.9z"/>
			<path fill="none" stroke="#FFC122" stroke-width="0.2516" stroke-miterlimit="10" d="M379,157.9c0.1-0.1,0.2-0.1,0.2,0
				c0.1,0.1,0.2,0.3,0.2,0.4c0.1,0.1,0,0.2-0.1,0.2s-0.3,0-0.5,0c-0.1,0-0.2-0.1-0.1-0.2C378.8,158.2,378.9,158,379,157.9z"/>
		</g>
		<g>
			<path fill="#FFC122" d="M384.3,157.9c0.1-0.1,0.2-0.1,0.2,0c0.1,0.1,0.2,0.3,0.2,0.4c0.1,0.1,0,0.2-0.1,0.2s-0.3,0-0.5,0
				s-0.2-0.1-0.1-0.2C384.1,158.2,384.2,158,384.3,157.9z"/>
			<path fill="none" stroke="#FFC122" stroke-width="0.2516" stroke-miterlimit="10" d="M384.3,157.9c0.1-0.1,0.2-0.1,0.2,0
				c0.1,0.1,0.2,0.3,0.2,0.4c0.1,0.1,0,0.2-0.1,0.2s-0.3,0-0.5,0s-0.2-0.1-0.1-0.2C384.1,158.2,384.2,158,384.3,157.9z"/>
		</g>
		<path fill="#FFFFFF" d="M333.7,121.2c0,0.7-0.2,1.4-0.5,2c-0.6,1-1.5,1.7-2.7,1.9c-0.2,0-0.3,0-0.5,0h-23.5c-0.1,0-0.2,0-0.4,0
			c-0.1,0-0.2,0-0.4,0c-2.2,0-4-1.8-4-4c0-2.2,1.8-4,4-4c0.2,0,0.4,0,0.6,0c-0.1-0.9-0.1-1.9,0.2-2.9c1-3.6,4.8-5.7,8.4-4.7
			c1.8,0.5,3.3,1.8,4.1,3.3c0.9-0.5,1.9-0.8,3-0.8c3.1,0,5.6,2.5,5.7,5.5c0.6-0.3,1.3-0.5,2-0.5C332,117.2,333.7,119,333.7,121.2z"
			/>
	</g>
	<circle fill="#62D4D4" stroke="#62D4D4" stroke-width="7.1207" stroke-miterlimit="10" cx="353.3" cy="221" r="23.1"/>
	<g>
		<polygon fill="#9A916F" points="348.6,198.6 350.4,199.5 352.2,200.3 348.6,200.3 344.9,200.3 346.8,199.5 		"/>
		<rect x="340.5" y="210.4" fill="#FFC122" width="26.2" height="30.5"/>
		<polygon fill="#664D25" points="366.7,210.5 340.5,210.5 345,204.7 362.2,204.7 		"/>
		<rect x="340.5" y="210.4" fill="#FFAAA8" width="26.1" height="2"/>
		<rect x="345" y="200.2" fill="#664D25" width="7.2" height="6.4"/>
		<rect x="355.4" y="200.4" fill="#664D25" width="7" height="6.4"/>
		<polygon fill="#9A916F" points="358.9,198.7 360.7,199.6 362.5,200.4 358.9,200.4 355.3,200.4 357.1,199.6 		"/>
		<path fill="#FFFFFF" d="M347.8,215.2c1.3,0,2.4,1.1,2.4,2.5v4l-4.8,0l0-4C345.5,216.3,346.5,215.2,347.8,215.2L347.8,215.2"/>
		<path fill="#A2A242" stroke="#A2A242" stroke-width="2.8463" stroke-miterlimit="10" d="M350.1,217.2c0-1.1-1-2-2.3-2
			s-2.3,0.9-2.3,2H350.1z"/>
		<path fill="#FFFFFF" d="M359.2,215.3c1.3,0,2.4,1.1,2.4,2.5v4l-4.8,0l0-4C356.9,216.4,357.9,215.3,359.2,215.3L359.2,215.3"/>
		<path fill="#A2A242" stroke="#A2A242" stroke-width="2.8463" stroke-miterlimit="10" d="M361.5,217.3c0-1.1-1-2-2.3-2
			s-2.3,0.9-2.3,2H361.5z"/>
		<rect x="347.1" y="201.3" fill="#FFFFFF" width="2.9" height="2.5"/>
		<rect x="357.5" y="201.4" fill="#FFFFFF" width="2.9" height="2.5"/>
		<path fill="#FF5774" stroke="#FF5774" stroke-width="3.0952" stroke-miterlimit="10" d="M355.9,239.3c0-3.3-1-6-2.3-6
			s-2.3,2.7-2.3,6H355.9z"/>
		<path fill="#FFFFFF" d="M347.8,224.3c1.3,0,2.4,1.1,2.4,2.5v4l-4.8,0l0-4C345.5,225.4,346.5,224.3,347.8,224.3L347.8,224.3"/>
		<path fill="#A2A242" stroke="#A2A242" stroke-width="2.8463" stroke-miterlimit="10" d="M350.1,226.3c0-1.1-1-2-2.3-2
			s-2.3,0.9-2.3,2H350.1z"/>
		<path fill="#FFFFFF" d="M359.2,224.4c1.3,0,2.4,1.1,2.4,2.5v4l-4.8,0l0-4C356.9,225.5,357.9,224.4,359.2,224.4L359.2,224.4"/>
		<path fill="#A2A242" stroke="#A2A242" stroke-width="2.8463" stroke-miterlimit="10" d="M361.5,226.4c0-1.1-1-2-2.3-2
			s-2.3,0.9-2.3,2H361.5z"/>
	</g>
	<rect x="398.6" y="204.7" fill="none" width="35.3" height="15.3"/>
	<text transform="matrix(1 0 0 1 398.604 213.4718)" fill="#205D76" font-family="'OpenSans-Semibold'" font-size="11.5097">Sleep</text>
	<circle fill="#FFC122" cx="400.4" cy="226" r="1.1"/>
	<rect x="396.5" y="222.2" fill="none" width="71.6" height="8.1"/>
	<text transform="matrix(1 0 0 1 406.8208 227.6593)" fill="#EA6E2F" font-family="'OpenSans'" font-size="7.1207">The Snooze Inn</text>
	<rect x="386.2" y="234.6" fill="none" width="71.6" height="15.7"/>
	<text transform="matrix(1 0 0 1 406.7808 239.9952)" fill="#EA6E2F" font-family="'OpenSans'" font-size="7.1207">Zzz Hotel</text>
	<line fill="none" stroke="#EA6E2F" stroke-width="0.4984" stroke-miterlimit="10" x1="407.6" y1="229.1" x2="458.4" y2="229.1"/>
	<line fill="none" stroke="#EA6E2F" stroke-width="0.4984" stroke-miterlimit="10" x1="406.9" y1="241.3" x2="437.5" y2="241.3"/>
	<circle fill="#FFA09E" stroke="#FFA09E" stroke-width="7.1207" stroke-miterlimit="10" cx="354.2" cy="291.3" r="23.4"/>
	<rect x="398.8" y="274.3" fill="none" width="48.6" height="36.7"/>
	<text transform="matrix(1 0 0 1 398.7954 283.0401)" fill="#205D76" font-family="'OpenSans-Semibold'" font-size="11.5097">Food</text>
	<g>
		<path fill="#A2A242" d="M366.7,280.1v31H342c0,0,0-30.9,0-31c0,0,2.7-0.9,2.9-1c1.1-0.5,2.1-1.1,2.9-1.8c1.7-1.4,2.1-2.9,2.1-4.7
			c0-1.7,1.9-3,4.2-3c1.2,0,2.2,0.3,3,0.9c0.8,0.5,1.2,1.3,1.2,2.1c0,1.9,0.5,3.3,2.2,4.7C362.2,278.7,364.4,279.7,366.7,280.1z"/>
		<g>
			<circle fill="#62D4D4" cx="354.2" cy="278.7" r="2.4"/>
			<g>
				
					<line fill="none" stroke="#205D76" stroke-width="0.2125" stroke-linecap="round" stroke-linejoin="round" stroke-miterlimit="10" x1="354.2" y1="278.8" x2="354.2" y2="277.3"/>
				
					<line fill="none" stroke="#205D76" stroke-width="0.2125" stroke-linecap="round" stroke-linejoin="round" stroke-miterlimit="10" x1="354.2" y1="278.8" x2="355.6" y2="278.8"/>
			</g>
		</g>
		<g>
			<path fill="#FFFFFF" d="M348.7,284.4c1.5,0,2.7,1,2.7,2.3v3.8l-5.3,0l0-3.8C346.1,285.4,347.3,284.4,348.7,284.4L348.7,284.4"/>
			<rect x="346" y="290.4" fill="#FFAAA8" width="5.3" height="0.6"/>
		</g>
		<g>
			<path fill="#FFFFFF" d="M359.7,284.4c1.5,0,2.7,1,2.7,2.3v3.8l-5.3,0l0-3.8C357,285.5,358.2,284.4,359.7,284.4L359.7,284.4"/>
			<rect x="357" y="290.5" fill="#FFAAA8" width="5.3" height="0.6"/>
		</g>
		<g>
			<path fill="#FFFFFF" d="M354.3,293.5c3.3,0,5.9,1,5.9,2.3v3.8l-11.9,0l0.1-3.8C348.3,294.6,351,293.5,354.3,293.5L354.3,293.5"/>
			<rect x="348.3" y="299.6" fill="#FFAAA8" width="11.9" height="0.6"/>
		</g>
		<g>
			<path fill="#FFAAA8" stroke="#FFAAA8" stroke-width="0.1244" stroke-miterlimit="10" d="M354.2,302.5c3,0,5.5,0.7,5.5,1.5
				l-4.9,2.3l-3.9-0.6l-2.2-1.7C348.7,303.2,351.1,302.5,354.2,302.5L354.2,302.5"/>
			<rect x="348.6" y="303.9" fill="#FFD265" width="11.1" height="7.3"/>
			<line fill="none" stroke="#A2A242" stroke-width="0.8746" stroke-miterlimit="10" x1="354.3" y1="303.9" x2="354.3" y2="311.1"/>
		</g>
	</g>
	<rect x="392" y="292" fill="none" width="71.6" height="15.7"/>
	<text transform="matrix(1 0 0 1 407.7153 297.4405)" fill="#EA6E2F" font-family="'OpenSans'" font-size="7.1207">Just Cookies</text>
	<rect x="386.3" y="304" fill="none" width="71.6" height="15.7"/>
	<text transform="matrix(1 0 0 1 406.8169 309.4415)" fill="#EA6E2F" font-family="'OpenSans'" font-size="7.1207">Cake Too</text>
	<line fill="none" stroke="#EA6E2F" stroke-width="0.4984" stroke-miterlimit="10" x1="407.5" y1="310.4" x2="438.1" y2="310.4"/>
	<line fill="none" stroke="#EA6E2F" stroke-width="0.4984" stroke-miterlimit="10" x1="406.4" y1="299" x2="447.4" y2="299"/>
	<circle fill="#A2A242" stroke="#A2A242" stroke-width="7.1207" stroke-miterlimit="10" cx="354.4" cy="359.5" r="23.4"/>
	<g>
		<rect x="399.1" y="341.2" fill="none" width="54.1" height="16.1"/>
		<text transform="matrix(1 0 0 1 399.0708 349.9366)" fill="#205D76" font-family="'OpenSans-Semibold'" font-size="11.5097">Shop</text>
	</g>
	<g>
		<g>
			<rect x="337.9" y="360.4" fill="#FFA09E" width="32" height="17.2"/>
			<rect x="339.6" y="349.8" fill="#FFA09E" width="28.5" height="10.9"/>
			<rect x="343.3" y="341.9" fill="#FFA09E" width="20.9" height="8"/>
			<polygon fill="#205D76" points="353.7,338.6 358.9,340.3 364.1,341.9 353.7,341.9 343.4,341.9 348.5,340.3 			"/>
			<rect x="350.6" y="369.7" fill="#205D76" width="6.6" height="7.9"/>
			<rect x="339.6" y="349.8" fill="#205D76" width="28.5" height="1.2"/>
			<rect x="337.9" y="360.4" fill="#205D76" width="32" height="1"/>
			<path fill="#FFFFFF" d="M359.9,348c0-2.4-2.7-4.3-6-4.3s-6,1.9-6,4.3H359.9z"/>
			<rect x="347.8" y="348" fill="#205D76" width="12.3" height="0.4"/>
			<path fill="#FFFFFF" d="M357.1,369.7c0-0.9-1.4-1.7-3.2-1.7s-3.2,0.7-3.2,1.7H357.1z"/>
			<rect x="343.4" y="352.6" fill="#FFD265" width="8.1" height="5.3"/>
			<rect x="356.1" y="352.6" fill="#FFD265" width="8.1" height="5.3"/>
			<g>
				<rect x="338" y="361.5" fill="#FFFFFF" width="31.9" height="0.6"/>
				<ellipse fill="#FFFFFF" cx="340.5" cy="362.1" rx="2.6" ry="0.6"/>
				<ellipse fill="#FFFFFF" cx="344.8" cy="362.2" rx="2.6" ry="0.6"/>
				<ellipse fill="#FFFFFF" cx="349.2" cy="362.2" rx="2.6" ry="0.6"/>
				<ellipse fill="#FFFFFF" cx="353.8" cy="362.2" rx="2.6" ry="0.6"/>
				<ellipse fill="#FFFFFF" cx="358.3" cy="362.2" rx="2.6" ry="0.6"/>
				<ellipse fill="#FFFFFF" cx="362.9" cy="362.2" rx="2.6" ry="0.6"/>
				<ellipse fill="#FFFFFF" cx="367.3" cy="362.2" rx="2.6" ry="0.6"/>
			</g>
		</g>
		<ellipse fill="#FFFFFF" cx="344.2" cy="370.6" rx="2.8" ry="2.9"/>
		<ellipse fill="#FFFFFF" cx="364.1" cy="370.6" rx="2.8" ry="2.9"/>
	</g>
	<rect x="394.7" y="359.9" fill="none" width="71.6" height="5.7"/>
	<text transform="matrix(1 0 0 1 407.3726 365.2852)" fill="#EA6E2F" font-family="'OpenSans'" font-size="7.1207">Puppy Parade</text>
	<rect x="391.4" y="372" fill="none" width="71.6" height="15.7"/>
	<text transform="matrix(1 0 0 1 407.3569 377.3907)" fill="#EA6E2F" font-family="'OpenSans'" font-size="7.1207">Cool Kittens</text>
	<line fill="none" stroke="#EA6E2F" stroke-width="0.4984" stroke-miterlimit="10" x1="407.7" y1="366.3" x2="453.1" y2="366.3"/>
	<line fill="none" stroke="#EA6E2F" stroke-width="0.4984" stroke-miterlimit="10" x1="407.8" y1="378.9" x2="447.7" y2="378.9"/>
	<g>
		
			<line fill="none" stroke="#FF5774" stroke-linecap="round" stroke-linejoin="round" stroke-miterlimit="10" x1="191.6" y1="43.9" x2="191.6" y2="188.6"/>
		
			<line fill="none" stroke="#FF5774" stroke-linecap="round" stroke-linejoin="round" stroke-miterlimit="10" x1="191.6" y1="188.6" x2="217.1" y2="188.6"/>
		
			<line fill="none" stroke="#FF5774" stroke-linecap="round" stroke-linejoin="round" stroke-miterlimit="10" x1="191.6" y1="116.3" x2="148.5" y2="116.3"/>
		
			<line fill="none" stroke="#FF5774" stroke-linecap="round" stroke-linejoin="round" stroke-miterlimit="10" x1="191.6" y1="43.9" x2="217.1" y2="43.9"/>
	</g>
	<path fill="#FFFFFF" stroke="#FF5774" stroke-width="0.9186" stroke-miterlimit="10" d="M171.8,130.4h-46c-2.8,0-5-2.2-5-5v-12.6
		c0-2.8,2.2-5,5-5h46c2.8,0,5,2.2,5,5v12.6C176.8,128.2,174.5,130.4,171.8,130.4z"/>
	<rect x="127.6" y="114.2" fill="none" width="55.6" height="18.8"/>
	<text transform="matrix(1 0 0 1 127.6133 123.9263)" fill="#FF5774" font-family="'OpenSans'" font-size="12.8611">header</text>
	
		<line fill="none" stroke="#6B6C24" stroke-linecap="round" stroke-linejoin="round" stroke-miterlimit="10" x1="105.9" y1="42.8" x2="105.9" y2="435.7"/>
	
		<line fill="none" stroke="#6B6C24" stroke-linecap="round" stroke-linejoin="round" stroke-miterlimit="10" x1="105.9" y1="435.7" x2="131.4" y2="435.7"/>
	
		<line fill="none" stroke="#6B6C24" stroke-linecap="round" stroke-linejoin="round" stroke-miterlimit="10" x1="105.7" y1="227.4" x2="63.2" y2="227.4"/>
	
		<line fill="none" stroke="#6B6C24" stroke-linecap="round" stroke-linejoin="round" stroke-miterlimit="10" x1="105.9" y1="42.8" x2="131.4" y2="42.8"/>
	<path fill="#FFFFFF" stroke="#6B6C24" stroke-width="1.0449" stroke-miterlimit="10" d="M82.7,242h-45c-2.8,0-5-2.2-5-5v-19.8
		c0-2.8,2.2-5,5-5h45c2.8,0,5,2.2,5,5V237C87.7,239.7,85.5,242,82.7,242z"/>
	<rect x="43" y="220.1" fill="none" width="37.5" height="16.5"/>
	<text transform="matrix(1 0 0 1 43.002 231.0927)" fill="#6B6C24" font-family="'OpenSans'" font-size="14.4297">body</text>
	<circle fill="#FFC122" cx="400.4" cy="238.2" r="1.1"/>
	<circle fill="#FFC122" cx="400.4" cy="295.5" r="1.1"/>
	<circle fill="#FFC122" cx="400.4" cy="307.7" r="1.1"/>
	<circle fill="#FFC122" cx="400.4" cy="363.8" r="1.1"/>
	<circle fill="#FFC122" cx="400.4" cy="375.4" r="1.1"/>
	<g>
		
			<line fill="none" stroke="#EA6E2F" stroke-linecap="round" stroke-linejoin="round" stroke-miterlimit="10" x1="246.1" y1="54" x2="246.1" y2="71.5"/>
		
			<line fill="none" stroke="#EA6E2F" stroke-linecap="round" stroke-linejoin="round" stroke-miterlimit="10" x1="246.1" y1="71.5" x2="258.3" y2="71.5"/>
		
			<line fill="none" stroke="#EA6E2F" stroke-linecap="round" stroke-linejoin="round" stroke-miterlimit="10" x1="246.1" y1="62.7" x2="225.5" y2="62.7"/>
		
			<line fill="none" stroke="#EA6E2F" stroke-linecap="round" stroke-linejoin="round" stroke-miterlimit="10" x1="246.1" y1="54" x2="258.3" y2="54"/>
	</g>
	<g>
		
			<line fill="none" stroke="#EA6E2F" stroke-linecap="round" stroke-linejoin="round" stroke-miterlimit="10" x1="246.1" y1="84.8" x2="246.1" y2="171.1"/>
		
			<line fill="none" stroke="#EA6E2F" stroke-linecap="round" stroke-linejoin="round" stroke-miterlimit="10" x1="246.1" y1="171.1" x2="258.3" y2="171.1"/>
		
			<line fill="none" stroke="#EA6E2F" stroke-linecap="round" stroke-linejoin="round" stroke-miterlimit="10" x1="246.1" y1="128" x2="225.5" y2="128"/>
		
			<line fill="none" stroke="#EA6E2F" stroke-linecap="round" stroke-linejoin="round" stroke-miterlimit="10" x1="246.1" y1="84.8" x2="258.3" y2="84.8"/>
	</g>
	<path fill="#FFFFFF" stroke="#EA6E2F" stroke-miterlimit="10" d="M230.8,74h-20.4c-2.8,0-5-2.2-5-5v-9.9c0-2.8,2.2-5,5-5h20.4
		c2.8,0,5,2.2,5,5V69C235.8,71.8,233.5,74,230.8,74z"/>
	<rect x="214.4" y="59.7" fill="none" width="48.9" height="16.6"/>
	<text transform="matrix(1 0 0 1 214.4209 68.3134)" fill="#EA6E2F" font-family="'OpenSans'" font-size="11.3101">h1</text>
	<path fill="#FFFFFF" stroke="#EA6E2F" stroke-miterlimit="10" d="M230.5,137.4h-20.2c-2.8,0-5-2.2-5-5v-9.9c0-2.8,2.2-5,5-5h20.2
		c2.8,0,5,2.2,5,5v9.9C235.5,135.2,233.3,137.4,230.5,137.4z"/>
	<rect x="211.2" y="123.1" fill="none" width="48.9" height="16.6"/>
	<text transform="matrix(1 0 0 1 211.1694 131.7119)" fill="#EA6E2F" font-family="'OpenSans'" font-size="11.3101">img</text>
</g>
</svg>
