<?xml version="1.0" encoding="utf-8"?>
<!-- Generator: Adobe Illustrator 18.1.1, SVG Export Plug-In . SVG Version: 6.00 Build 0)  -->
<svg version="1.1" id="Layer_1" xmlns="http://www.w3.org/2000/svg" xmlns:xlink="http://www.w3.org/1999/xlink" x="0px" y="0px"
	 viewBox="0 0 600 290" enable-background="new 0 0 600 290" xml:space="preserve">
<g>
	<g>
		<path fill="#EA6E2F" d="M287,232.3l-34.5-70.1c-0.1-0.1-0.1-0.2-0.2-0.3c0.6-1.6,1-3.4,1-5.2v-110c0-8.9-7.3-17.3-16.2-17.3H68.6
			c-8.9,0-16.2,8.4-16.2,17.3v110c0,1.8,0.4,3.6,1,5.2c-0.1,0.1-0.1,0.2-0.2,0.3l-34.5,70.1c-2.2,4.4-2.1,9.6,0.2,13.2
			c2.3,3.7,6.4,6.4,11.3,6.4h245.3c4.9,0,9-2.7,11.3-6.4C289.1,241.9,289.2,236.7,287,232.3z M237.3,175.9c2.7,0,4.9,1.4,4.9,4.1
			s-2.2,4.1-4.9,4.1h-9.6c-2.7,0-4.9-1.4-4.9-4.1s2.2-4.1,4.9-4.1H237.3z M71.5,53.7c0-2.7,1.6-5.3,4.3-5.3H230
			c2.7,0,4.3,2.6,4.3,5.3v89.7c0,2.7-1.6,5.4-4.3,5.4H75.8c-2.7,0-4.3-2.7-4.3-5.4V53.7z M215.7,180c0,2.7-2.2,4.1-4.9,4.1h-9.7
			c-2.7,0-4.9-1.4-4.9-4.1s2.2-4.1,4.9-4.1h9.7C213.5,175.9,215.7,177.3,215.7,180z M176,197.6h11.5c2.7,0,4.9,1.4,4.9,4.1
			c0,2.7-2.2,4.1-4.9,4.1H176c-2.7,0-4.9-1.4-4.9-4.1C171.1,199,173.3,197.6,176,197.6z M169.7,180c0-2.7,2.2-4.1,4.9-4.1h9.6
			c2.7,0,4.9,1.4,4.9,4.1s-2.2,4.1-4.9,4.1h-9.6C171.9,184.1,169.7,182.7,169.7,180z M147.1,197.6h11.5c2.7,0,4.9,1.4,4.9,4.1
			c0,2.7-2.2,4.1-4.9,4.1h-11.5c-2.7,0-4.9-1.4-4.9-4.1C142.3,199,144.5,197.6,147.1,197.6z M143.2,180c0-2.7,2.2-4.1,4.9-4.1h9.7
			c2.7,0,4.9,1.4,4.9,4.1s-2.2,4.1-4.9,4.1h-9.7C145.4,184.1,143.2,182.7,143.2,180z M131.2,184.1h-9.6c-2.7,0-4.9-1.4-4.9-4.1
			s2.2-4.1,4.9-4.1h9.6c2.7,0,4.9,1.4,4.9,4.1S133.9,184.1,131.2,184.1z M134.7,201.7c0,2.7-2.2,4.1-4.9,4.1h-11.5
			c-2.7,0-4.9-1.4-4.9-4.1c0-2.7,2.2-4.1,4.9-4.1h11.5C132.5,197.6,134.7,199,134.7,201.7z M109.5,180c0,2.7-2.2,4.1-4.9,4.1H95
			c-2.7,0-4.9-1.4-4.9-4.1s2.2-4.1,4.9-4.1h9.7C107.3,175.9,109.5,177.3,109.5,180z M68.4,175.9h9.7c2.7,0,4.9,1.4,4.9,4.1
			s-2.2,4.1-4.9,4.1h-9.7c-2.7,0-4.9-1.4-4.9-4.1S65.7,175.9,68.4,175.9z M62.2,230.2H48.5c-2.7,0-4.9-2.7-4.9-5.4
			c0-2.7,2.2-5.4,4.9-5.4h13.7c2.7,0,4.9,2.7,4.9,5.4C67,227.5,64.8,230.2,62.2,230.2z M60.6,205.8c-2.7,0-4.9-1.4-4.9-4.1
			c0-2.7,2.2-4.1,4.9-4.1h11.5c2.7,0,4.9,1.4,4.9,4.1c0,2.7-2.2,4.1-4.9,4.1H60.6z M94.7,230.2H81c-2.7,0-4.9-2.7-4.9-5.4
			c0-2.7,2.2-5.4,4.9-5.4h13.7c2.7,0,4.9,2.7,4.9,5.4C99.6,227.5,97.4,230.2,94.7,230.2z M101,205.8H89.5c-2.7,0-4.9-1.4-4.9-4.1
			c0-2.7,2.2-4.1,4.9-4.1H101c2.7,0,4.9,1.4,4.9,4.1C105.9,204.4,103.7,205.8,101,205.8z M192.3,230.2h-78.7c-2.7,0-4.9-2.7-4.9-5.4
			c0-2.7,2.2-5.4,4.9-5.4h78.7c2.7,0,4.9,2.7,4.9,5.4C197.1,227.5,195,230.2,192.3,230.2z M199.9,201.7c0-2.7,2.2-4.1,4.9-4.1h11.5
			c2.7,0,4.9,1.4,4.9,4.1c0,2.7-2.2,4.1-4.9,4.1h-11.5C202.1,205.8,199.9,204.4,199.9,201.7z M224.8,230.2h-13.7
			c-2.7,0-4.9-2.7-4.9-5.4c0-2.7,2.2-5.4,4.9-5.4h13.7c2.7,0,4.9,2.7,4.9,5.4C229.7,227.5,227.5,230.2,224.8,230.2z M228.8,201.7
			c0-2.7,2.2-4.1,4.9-4.1h11.5c2.7,0,4.9,1.4,4.9,4.1c0,2.7-2.2,4.1-4.9,4.1h-11.5C231,205.8,228.8,204.4,228.8,201.7z M257.3,230.2
			h-13.7c-2.7,0-4.9-2.7-4.9-5.4c0-2.7,2.2-5.4,4.9-5.4h13.7c2.7,0,4.9,2.7,4.9,5.4C262.2,227.5,260,230.2,257.3,230.2z"/>
		<path fill="#FFFFFF" d="M68.9,52.1c0-2.8,1.7-5.5,4.5-5.5h159.2c2.8,0,4.4,2.7,4.4,5.5v92.6c0,2.8-1.6,5.6-4.4,5.6H73.3
			c-2.8,0-4.5-2.8-4.5-5.6V52.1z"/>
		<path fill="#C9C9C9" d="M68.9,55.8V50c0-2.8,1.7-5.5,4.5-5.5h159.2c2.8,0,4.4,2.7,4.4,5.5v5.8"/>
		<g>
			<circle fill="#9D9E9D" cx="76.6" cy="50.2" r="2.5"/>
			<circle fill="#9D9E9D" cx="83.7" cy="50.2" r="2.5"/>
			<circle fill="#9D9E9D" cx="90.7" cy="50.2" r="2.5"/>
		</g>
	</g>
	<g>
		<rect x="74.1" y="107.8" width="115.3" height="3.4"/>
		<rect x="74.1" y="122.2" width="115.3" height="3.4"/>
		<rect x="74.1" y="135.7" width="115.3" height="3.4"/>
	</g>
	<g>
		
			<path fill="#664D25" stroke="#664D25" stroke-width="0.2464" stroke-linecap="round" stroke-linejoin="round" stroke-miterlimit="10" d="
			M102.5,78.7c0.9-1.6,1.2-3.6,1.2-5.7c0-5.6-2.6-10.1-7.2-10.1c-4.6,0-7.2,4.5-7.2,10.1c0,2.1,0,4.1,0.9,5.8L102.5,78.7z"/>
		<ellipse fill="#EECEA9" stroke="#EECEA9" stroke-width="0.3106" stroke-miterlimit="10" cx="91.1" cy="70.7" rx="1.1" ry="1.3"/>
		<ellipse fill="#EECEA9" stroke="#EECEA9" stroke-width="0.3106" stroke-miterlimit="10" cx="101.8" cy="70.7" rx="1.1" ry="1.3"/>
		<path fill="#EECEA9" stroke="#EECEA9" stroke-width="0.2878" stroke-miterlimit="10" d="M98,76.3c0,0.1,0,0.2,0,0.3v2.2
			c0,0.8-0.6,1.4-1.4,1.4c-0.4,0-0.8-0.2-1-0.4c-0.3-0.3-0.4-0.6-0.4-1v-2.2c0-0.1,0-0.2,0-0.3c-2.3-0.7-4.1-3-4.1-5.8
			c0-3.3,2.4-6,5.4-6c3,0,5.4,2.7,5.4,6C101.9,73.3,100.2,75.6,98,76.3z"/>
		<path fill="#FF5774" stroke="#FF5774" stroke-width="0.2878" stroke-miterlimit="10" d="M102.7,86.1c0,4.1-1.9,7.4-4.2,7.4h-3.7
			c-2.3,0-4.2-3.3-4.2-7.4l0,0c0-4.1,1.9-7.4,4.2-7.4h3.7C100.8,78.7,102.7,82,102.7,86.1L102.7,86.1z"/>
		<circle fill="#FF5774" cx="93.4" cy="71.1" r="0.7"/>
		<circle fill="#FF5774" cx="99.5" cy="71.1" r="0.7"/>
		
			<path fill="none" stroke="#333333" stroke-width="0.274" stroke-linecap="round" stroke-linejoin="round" stroke-miterlimit="10" d="
			M94.1,68.6c0-0.3,0.3-0.6,0.8-0.6s0.8,0.3,0.8,0.6"/>
		
			<path fill="none" stroke="#333333" stroke-width="0.274" stroke-linecap="round" stroke-linejoin="round" stroke-miterlimit="10" d="
			M97.3,68.6c0-0.3,0.3-0.6,0.8-0.6s0.8,0.3,0.8,0.6"/>
		
			<path fill="#664D25" stroke="#664D25" stroke-width="0.2464" stroke-linecap="round" stroke-linejoin="round" stroke-miterlimit="10" d="
			M98,64.8c0,0,2.2,4.2,3.8,4.3C103.4,69.3,101.4,64.1,98,64.8z"/>
		
			<path fill="#664D25" stroke="#664D25" stroke-width="0.2464" stroke-linecap="round" stroke-linejoin="round" stroke-miterlimit="10" d="
			M91,69.1c0,0,5.6-0.5,7-4.3C99.4,61,88.6,65.1,91,69.1z"/>
		
			<path fill="#FFFFFF" stroke="#FFFFFF" stroke-width="0.233" stroke-linecap="round" stroke-linejoin="round" stroke-miterlimit="10" d="
			M98.5,73c0,1.1-0.9,2-2,2c-1.1,0-2-0.9-2-2H98.5z"/>
		<path fill="#FF5774" stroke="#FF5774" stroke-width="0.3091" stroke-miterlimit="10" d="M93,78.9c0.8,0.4,1.1,1.4,0.7,2.3l-2,4.4
			c-0.4,0.9-1.4,1.4-2.2,1l0,0c-0.8-0.4-1.1-1.4-0.7-2.3l2-4.4C91.2,79,92.2,78.5,93,78.9L93,78.9z"/>
		<path fill="#EECEA9" stroke="#EECEA9" stroke-width="0.3121" stroke-miterlimit="10" d="M89.4,84.1c0.8-0.3,1.7,0.3,2,1.3L93,90
			c0.3,1-0.1,2-0.9,2.2l0,0c-0.8,0.3-1.7-0.3-2-1.3l-1.5-4.7C88.2,85.3,88.6,84.3,89.4,84.1L89.4,84.1z"/>
		<path fill="#FF5774" stroke="#FF5774" stroke-width="0.3091" stroke-miterlimit="10" d="M100.1,78.9c-0.8,0.4-1.1,1.4-0.7,2.3
			l2,4.4c0.4,0.9,1.4,1.4,2.2,1l0,0c0.8-0.4,1.1-1.4,0.7-2.3l-2-4.4C101.8,79,100.9,78.5,100.1,78.9L100.1,78.9z"/>
		<path fill="#EECEA9" stroke="#EECEA9" stroke-width="0.3121" stroke-miterlimit="10" d="M103.6,84.1c-0.8-0.3-1.7,0.3-2,1.3
			L100,90c-0.3,1,0.1,2,0.9,2.2l0,0c0.8,0.3,1.7-0.3,2-1.3l1.5-4.7C104.8,85.3,104.4,84.3,103.6,84.1L103.6,84.1z"/>
		<path fill="#FFC122" stroke="#FFC122" stroke-width="0.2787" stroke-miterlimit="10" d="M103.3,99.1H89.8c-1.7,0-3-1.3-3-3v-6.6
			c0-1.7,1.3-3,3-3h13.5c1.7,0,3,1.3,3,3v6.6C106.3,97.8,104.9,99.1,103.3,99.1z"/>
		<circle fill="#FFFFFF" cx="96.5" cy="92.9" r="1.7"/>
		<rect x="76.6" y="98.7" fill="#9A916F" width="40.4" height="1.6"/>
	</g>
</g>
<g>
	<path fill="#EA6E2F" d="M585.4,231.7l-34.5-70.1c-0.1-0.1-0.1-0.2-0.2-0.3c0.6-1.6,1-3.4,1-5.2V46c0-8.9-7.3-17.3-16.2-17.3H367
		c-8.9,0-16.2,8.4-16.2,17.3v110c0,1.8,0.4,3.6,1,5.2c-0.1,0.1-0.1,0.2-0.2,0.3l-34.5,70.1c-2.2,4.4-2.1,9.6,0.2,13.2
		c2.3,3.7,6.4,6.4,11.3,6.4H574c4.9,0,9-2.7,11.3-6.4C587.5,241.3,587.6,236.1,585.4,231.7z M535.7,175.3c2.7,0,4.9,1.4,4.9,4.1
		s-2.2,4.1-4.9,4.1h-9.6c-2.7,0-4.9-1.4-4.9-4.1s2.2-4.1,4.9-4.1H535.7z M369.9,53c0-2.7,1.6-5.3,4.3-5.3h154.2
		c2.7,0,4.3,2.6,4.3,5.3v89.7c0,2.7-1.6,5.4-4.3,5.4H374.2c-2.7,0-4.3-2.7-4.3-5.4V53z M514.1,179.4c0,2.7-2.2,4.1-4.9,4.1h-9.7
		c-2.7,0-4.9-1.4-4.9-4.1s2.2-4.1,4.9-4.1h9.7C511.9,175.3,514.1,176.7,514.1,179.4z M474.4,197h11.5c2.7,0,4.9,1.4,4.9,4.1
		c0,2.7-2.2,4.1-4.9,4.1h-11.5c-2.7,0-4.9-1.4-4.9-4.1C469.5,198.4,471.7,197,474.4,197z M468.1,179.4c0-2.7,2.2-4.1,4.9-4.1h9.6
		c2.7,0,4.9,1.4,4.9,4.1s-2.2,4.1-4.9,4.1H473C470.3,183.4,468.1,182,468.1,179.4z M445.5,197h11.5c2.7,0,4.9,1.4,4.9,4.1
		c0,2.7-2.2,4.1-4.9,4.1h-11.5c-2.7,0-4.9-1.4-4.9-4.1C440.7,198.4,442.8,197,445.5,197z M441.6,179.4c0-2.7,2.2-4.1,4.9-4.1h9.7
		c2.7,0,4.9,1.4,4.9,4.1s-2.2,4.1-4.9,4.1h-9.7C443.8,183.4,441.6,182,441.6,179.4z M429.6,183.4h-9.6c-2.7,0-4.9-1.4-4.9-4.1
		s2.2-4.1,4.9-4.1h9.6c2.7,0,4.9,1.4,4.9,4.1S432.3,183.4,429.6,183.4z M433.1,201.1c0,2.7-2.2,4.1-4.9,4.1h-11.5
		c-2.7,0-4.9-1.4-4.9-4.1c0-2.7,2.2-4.1,4.9-4.1h11.5C430.9,197,433.1,198.4,433.1,201.1z M407.9,179.4c0,2.7-2.2,4.1-4.9,4.1h-9.7
		c-2.7,0-4.9-1.4-4.9-4.1s2.2-4.1,4.9-4.1h9.7C405.7,175.3,407.9,176.7,407.9,179.4z M366.8,175.3h9.7c2.7,0,4.9,1.4,4.9,4.1
		s-2.2,4.1-4.9,4.1h-9.7c-2.7,0-4.9-1.4-4.9-4.1S364.1,175.3,366.8,175.3z M360.6,229.6h-13.7c-2.7,0-4.9-2.7-4.9-5.4
		c0-2.7,2.2-5.4,4.9-5.4h13.7c2.7,0,4.9,2.7,4.9,5.4C365.4,226.8,363.2,229.6,360.6,229.6z M359,205.1c-2.7,0-4.9-1.4-4.9-4.1
		c0-2.7,2.2-4.1,4.9-4.1h11.5c2.7,0,4.9,1.4,4.9,4.1c0,2.7-2.2,4.1-4.9,4.1H359z M393.1,229.6h-13.7c-2.7,0-4.9-2.7-4.9-5.4
		c0-2.7,2.2-5.4,4.9-5.4h13.7c2.7,0,4.9,2.7,4.9,5.4C398,226.8,395.8,229.6,393.1,229.6z M399.4,205.1h-11.5c-2.7,0-4.9-1.4-4.9-4.1
		c0-2.7,2.2-4.1,4.9-4.1h11.5c2.7,0,4.9,1.4,4.9,4.1C404.3,203.8,402.1,205.1,399.4,205.1z M490.7,229.6h-78.7
		c-2.7,0-4.9-2.7-4.9-5.4c0-2.7,2.2-5.4,4.9-5.4h78.7c2.7,0,4.9,2.7,4.9,5.4C495.5,226.8,493.4,229.6,490.7,229.6z M498.3,201.1
		c0-2.7,2.2-4.1,4.9-4.1h11.5c2.7,0,4.9,1.4,4.9,4.1c0,2.7-2.2,4.1-4.9,4.1h-11.5C500.5,205.1,498.3,203.8,498.3,201.1z
		 M523.2,229.6h-13.7c-2.7,0-4.9-2.7-4.9-5.4c0-2.7,2.2-5.4,4.9-5.4h13.7c2.7,0,4.9,2.7,4.9,5.4
		C528.1,226.8,525.9,229.6,523.2,229.6z M527.2,201.1c0-2.7,2.2-4.1,4.9-4.1h11.5c2.7,0,4.9,1.4,4.9,4.1c0,2.7-2.2,4.1-4.9,4.1H532
		C529.4,205.1,527.2,203.8,527.2,201.1z M555.7,229.6H542c-2.7,0-4.9-2.7-4.9-5.4c0-2.7,2.2-5.4,4.9-5.4h13.7c2.7,0,4.9,2.7,4.9,5.4
		C560.6,226.8,558.4,229.6,555.7,229.6z"/>
	<path fill="#82CACD" d="M367.3,51.4c0-2.8,1.7-5.5,4.5-5.5h159.2c2.8,0,4.4,2.7,4.4,5.5V144c0,2.8-1.6,5.6-4.4,5.6H371.7
		c-2.8,0-4.5-2.8-4.5-5.6V51.4z"/>
	<path fill="#C9C9C9" d="M367.3,55.2v-5.8c0-2.8,1.7-5.5,4.5-5.5h159.2c2.8,0,4.4,2.7,4.4,5.5v5.8"/>
	<g>
		<circle fill="#9D9E9D" cx="375" cy="49.5" r="2.5"/>
		<circle fill="#9D9E9D" cx="382.1" cy="49.5" r="2.5"/>
		<circle fill="#9D9E9D" cx="389.1" cy="49.5" r="2.5"/>
	</g>
</g>
<g>
	
		<path fill="#664D25" stroke="#664D25" stroke-width="0.3242" stroke-linecap="round" stroke-linejoin="round" stroke-miterlimit="10" d="
		M416.1,97.2c1.2-2.1,1.6-4.7,1.6-7.5c0-7.3-3.4-13.3-9.5-13.3s-9.5,5.9-9.5,13.3c0,2.8,0,5.4,1.2,7.6L416.1,97.2z"/>
	<ellipse fill="#EECEA9" stroke="#EECEA9" stroke-width="0.4085" stroke-miterlimit="10" cx="401.1" cy="86.6" rx="1.5" ry="1.7"/>
	<ellipse fill="#EECEA9" stroke="#EECEA9" stroke-width="0.4085" stroke-miterlimit="10" cx="415.3" cy="86.6" rx="1.5" ry="1.7"/>
	<path fill="#EECEA9" stroke="#EECEA9" stroke-width="0.3786" stroke-miterlimit="10" d="M410.2,93.9c0,0.1,0,0.3,0,0.4v2.9
		c0,1-0.9,1.9-1.9,1.9c-0.5,0-1-0.2-1.3-0.6c-0.3-0.3-0.6-0.8-0.6-1.3v-2.9c0-0.1,0-0.2,0-0.3c-3.1-0.9-5.3-4-5.3-7.6
		c0-4.4,3.2-7.9,7.1-7.9c3.9,0,7.1,3.5,7.1,7.9C415.3,89.9,413.2,93,410.2,93.9z"/>
	<path fill="#FF5774" stroke="#FF5774" stroke-width="0.3786" stroke-miterlimit="10" d="M416.4,106.8c0,5.4-2.5,9.7-5.6,9.7h-4.9
		c-3.1,0-5.6-4.4-5.6-9.7l0,0c0-5.4,2.5-9.7,5.6-9.7h4.9C413.9,97.1,416.4,101.4,416.4,106.8L416.4,106.8z"/>
	<circle fill="#FF5774" cx="404.2" cy="87.1" r="0.9"/>
	<circle fill="#FF5774" cx="412.2" cy="87.1" r="0.9"/>
	
		<path fill="none" stroke="#333333" stroke-width="0.3604" stroke-linecap="round" stroke-linejoin="round" stroke-miterlimit="10" d="
		M405.2,83.8c0-0.4,0.4-0.8,1-0.8c0.5,0,1,0.4,1,0.8"/>
	
		<path fill="none" stroke="#333333" stroke-width="0.3604" stroke-linecap="round" stroke-linejoin="round" stroke-miterlimit="10" d="
		M409.4,83.9c0-0.4,0.4-0.8,1-0.8s1,0.4,1,0.8"/>
	
		<path fill="#664D25" stroke="#664D25" stroke-width="0.3242" stroke-linecap="round" stroke-linejoin="round" stroke-miterlimit="10" d="
		M410.3,78.8c0,0,2.9,5.5,4.9,5.7C417.4,84.7,414.7,77.9,410.3,78.8z"/>
	
		<path fill="#664D25" stroke="#664D25" stroke-width="0.3242" stroke-linecap="round" stroke-linejoin="round" stroke-miterlimit="10" d="
		M401.1,84.5c0,0,7.4-0.6,9.2-5.7C412.1,73.8,397.9,79.2,401.1,84.5z"/>
	
		<path fill="#FFFFFF" stroke="#FFFFFF" stroke-width="0.3065" stroke-linecap="round" stroke-linejoin="round" stroke-miterlimit="10" d="
		M410.8,89.6c0,1.5-1.2,2.7-2.7,2.7s-2.7-1.2-2.7-2.7H410.8z"/>
	<path fill="#FF5774" stroke="#FF5774" stroke-width="0.4066" stroke-miterlimit="10" d="M403.6,97.3c1,0.5,1.4,1.8,0.9,3l-2.6,5.8
		c-0.5,1.2-1.8,1.8-2.8,1.3l0,0c-1-0.5-1.4-1.8-0.9-3l2.6-5.8C401.3,97.5,402.6,96.9,403.6,97.3L403.6,97.3z"/>
	<path fill="#EECEA9" stroke="#EECEA9" stroke-width="0.4105" stroke-miterlimit="10" d="M399,104.1c1.1-0.3,2.3,0.4,2.7,1.7l2,6.2
		c0.4,1.3-0.1,2.6-1.2,2.9l0,0c-1.1,0.3-2.3-0.4-2.7-1.7l-2-6.2C397.4,105.8,397.9,104.5,399,104.1L399,104.1z"/>
	<path fill="#FF5774" stroke="#FF5774" stroke-width="0.4066" stroke-miterlimit="10" d="M413,97.3c-1,0.5-1.4,1.8-0.9,3l2.6,5.8
		c0.5,1.2,1.8,1.8,2.8,1.3l0,0c1-0.5,1.4-1.8,0.9-3l-2.6-5.8C415.3,97.5,414,96.9,413,97.3L413,97.3z"/>
	<path fill="#EECEA9" stroke="#EECEA9" stroke-width="0.4105" stroke-miterlimit="10" d="M417.6,104.1c-1.1-0.3-2.3,0.4-2.7,1.7
		l-2,6.2c-0.4,1.3,0.1,2.6,1.2,2.9l0,0c1.1,0.3,2.3-0.4,2.7-1.7l2-6.2C419.2,105.8,418.6,104.5,417.6,104.1L417.6,104.1z"/>
	<path fill="#FFC122" stroke="#FFC122" stroke-width="0.3665" stroke-miterlimit="10" d="M418.1,124h-19.7c-1.7,0-3-1.3-3-3v-10.5
		c0-1.7,1.3-3,3-3h19.7c1.7,0,3,1.3,3,3V121C421.1,122.6,419.8,124,418.1,124z"/>
	<circle fill="#FFFFFF" cx="408.3" cy="115.7" r="2.2"/>
	<rect x="382.1" y="123.5" fill="#9A916F" width="53.1" height="2.1"/>
</g>
<g>
	<rect x="446.6" y="79.1" fill="#205D76" width="70.7" height="2.8"/>
	<rect x="446.6" y="91.1" fill="#205D76" width="70.7" height="2.8"/>
	<rect x="446.6" y="102.5" fill="#205D76" width="70.7" height="2.8"/>
</g>
<path fill="none" stroke="#205D76" stroke-width="2" stroke-miterlimit="10" d="M497,133.1h-30c-1.1,0-2-0.9-2-2v-11
	c0-1.1,0.9-2,2-2h30c1.1,0,2,0.9,2,2v11C499,132.2,498.1,133.1,497,133.1z"/>
<line fill="none" stroke="#205D76" stroke-width="2" stroke-miterlimit="10" x1="470" y1="125.6" x2="494" y2="125.6"/>
</svg>
